<?xml version="1.0" encoding="utf-8"?>
<!-- Generator: Adobe Illustrator 25.0.1, SVG Export Plug-In . SVG Version: 6.00 Build 0)  -->
<svg version="1.1" id="Layer_2" xmlns="http://www.w3.org/2000/svg" xmlns:xlink="http://www.w3.org/1999/xlink" x="0px" y="0px"
	 viewBox="0 0 63.6 102" style="enable-background:new 0 0 63.6 102;" xml:space="preserve">
<style type="text/css">
	.st0{opacity:0.31;fill:#F1F0EF;}
	.st1{opacity:0.35;fill:#F4F3F2;}
	.st2{opacity:0.29;fill:#FDFCFC;}
	.st3{opacity:0.57;fill:#FEFEFE;}
	.st4{opacity:0.35;fill:#E8E6E6;}
	.st5{opacity:0.16;fill:#F9F9F9;}
	.st6{fill:#454242;}
	.st7{opacity:0.36;fill:#EEEDEC;}
	.st8{opacity:0.13;fill:#EBE9E9;}
	.st9{opacity:0.4;fill:#F7F6F6;}
	.st10{opacity:0.47;fill:#F2F1F1;}
	.st11{fill:#42403F;}
	.st12{opacity:0.15;fill:#EDECEC;}
	.st13{fill:#1A1A1A;}
	.st14{fill:#C4C3C3;}
	.st15{fill:#484645;}
	.st16{fill:#D9D7D7;}
	.st17{fill:#4F4B4B;}
	.st18{fill:#4D4A49;}
	.st19{fill:#F2F0F0;}
	.st20{fill:#474544;}
	.st21{fill:#504D4C;}
	.st22{fill:#403F3E;}
	.st23{fill:#F3F2F1;}
	.st24{fill:#7C797A;}
	.st25{fill:#BFBEBE;}
	.st26{opacity:0.63;fill:#EBEAE9;}
	.st27{fill:#817E7E;}
	.st28{fill:#494646;}
	.st29{fill:#434141;}
	.st30{fill:#D7D5D5;}
	.st31{fill:#C0BEBE;}
	.st32{opacity:0.15;fill:#F8F8F7;}
	.st33{fill:#C7C6C6;}
	.st34{fill:#A9AAAA;}
	.st35{fill:#202020;}
	.st36{fill:#C3C2C2;}
	.st37{fill:#DAD8D8;}
	.st38{fill:#C8C6C6;}
	.st39{fill:#54514F;}
	.st40{fill:#1D1D1D;}
	.st41{fill:#7E7B7C;}
	.st42{fill:#918D8E;}
	.st43{fill:#C2C0C0;}
	.st44{fill:#1C1C1C;}
	.st45{fill:#DBDAD9;}
	.st46{fill:#D8D7D6;}
	.st47{fill:#1B1B1B;}
	.st48{fill:#7F7C7D;}
	.st49{fill:#878485;}
	.st50{opacity:0.46;fill:#EEECEC;}
	.st51{fill:#D1CFCF;}
	.st52{fill:#D2D1D0;}
	.st53{opacity:0.42;fill:#EEEDED;}
	.st54{fill:#949192;}
	.st55{fill:#E9E7E7;}
	.st56{fill:#F0EFEF;}
	.st57{fill:#D4D2D2;}
	.st58{fill:#ECEBEA;}
	.st59{fill:#C2C1C1;}
	.st60{fill:#D1D0D0;}
	.st61{fill:#888586;}
	.st62{fill:#CFCECD;}
	.st63{fill:#BFBDBD;}
	.st64{fill:#F4F3F2;}
	.st65{fill:#8D8A8B;}
	.st66{fill:#D3D1D1;}
	.st67{fill:#4C4948;}
	.st68{fill:#858283;}
	.st69{fill:#908C8D;}
	.st70{fill:#868384;}
	.st71{fill:#D5D4D3;}
	.st72{fill:#E8E7E6;}
	.st73{fill:#EAE9E8;}
	.st74{fill:#C3C1C1;}
	.st75{fill:#ECEBEB;}
	.st76{fill:#EEEDED;}
	.st77{fill:#4F4C4B;}
	.st78{fill:#545150;}
	.st79{opacity:0.4;fill:#F0EFEE;}
	.st80{fill:#D6D4D4;}
	.st81{fill:#EAE8E8;}
	.st82{opacity:0.42;fill:#F0EFEF;}
	.st83{opacity:0.35;fill:#D9D8D8;}
	.st84{fill:#FBFBFB;}
	.st85{fill:#C6C5C4;}
	.st86{fill:#D0CFCE;}
	.st87{opacity:0.44;fill:#EFEEED;}
	.st88{opacity:0.31;fill:#EBEAEA;}
	.st89{fill:#534F4E;}
	.st90{fill:#7B7879;}
	.st91{fill:#939090;}
	.st92{fill:#4A4747;}
	.st93{fill:#7D7A7B;}
	.st94{fill:#444342;}
	.st95{fill:#8B8788;}
	.st96{fill:#827F7F;}
	.st97{opacity:0.42;fill:#F2F0F0;}
	.st98{fill:#C1C0BF;}
	.st99{fill:#C7C5C5;}
	.st100{fill:#F8F7F6;}
	.st101{fill:#8E8B8C;}
	.st102{fill:#BDBCBC;}
	.st103{fill:#8A8687;}
	.st104{fill:#848182;}
	.st105{fill:#D3D2D1;}
	.st106{fill:#464443;}
	.st107{fill:#C5C4C3;}
	.st108{fill:#181818;}
	.st109{fill:#CC171E;}
</style>
<g>
	<path class="st0" d="M25.8,26.3c-0.2-0.2-0.3-0.8-0.1-0.9c0.5-0.5,0.4-1.1,0.3-1.7c-0.1,0.2-0.1,0.4-0.2,0.5
		c-0.1,0.2-0.3,0.5-0.4,0.5c-0.2,0-0.4-0.2-0.5-0.4c-0.3-0.4-0.5-0.9-0.7-1.3c-0.5,0.4-1,0.5-1.5-0.5c-0.2,1-0.5,1.7-0.3,2.3
		c0.1,0.6,0.6,1.2,1,1.9c-1.9,0.1-1.9,1.9-3,2.9c0.5,0.2,0.8,0.4,1.1,0.5c0,0.1,0,0.2-0.1,0.2c-1,0-1.2,0.6-1.4,1.5
		c-0.2,0.8-1,1.4-1.6,2.1c-0.1,0-0.2-0.1-0.3-0.1c0-0.2,0-0.4-0.1-0.9c-0.3,0.4-0.5,0.6-0.6,0.9c-0.2,0.3-0.3,0.7-0.4,1
		c-0.4-0.3-0.9-0.6-1.3-0.9c-0.1-0.1-0.1-0.3-0.2-0.5c-0.1,0.5-0.2,1.1-0.2,1.6c-0.1,1.3-0.1,2.5-0.2,3.8c-0.2,1.6-0.5,3.2-0.7,4.9
		c-0.1,0.7-0.2,1.3-0.3,2c0,0.1,0.1,0.3,0.1,0.4c-0.4,2.3-0.7,4.5-1.1,6.8c-0.1,0.5-0.2,1-0.3,1.4c0,0.6,0,1.1,0,1.7
		c0.2,0.3,0.4,0.6,0.5,0.9c0.6,0.1,1.1,0.1,1.7,0.2c0.3,0.1,0.5,0.3,0.7,0.5c0.1-0.2,0.1-0.4,0.2-0.5c-0.1-0.9-0.2-1.8-0.3-2.9
		c0.6,0.2,1,0.5,1.4,0.6c0.2,0.1,0.5-0.1,0.8-0.1c-0.1-0.2-0.2-0.4-0.3-0.7c-0.1-0.7-0.3-1.3-0.3-2c0-0.1,0.5-0.3,0.7-0.3
		c0.8-0.1,1.6-0.2,1.9-1.2c-1.4-0.7-0.2-1.8-0.4-2.8c0.8,0.7,1.2,0.2,1.7-0.3c0.2-0.2,0.4-0.3,0.7-0.4c0.3-0.5,0.6-1,1-1.5
		c-0.7-0.5-0.8-1.1-0.1-2c-0.5,0.1-0.8,0.2-1.2,0.4c0-0.2-0.1-0.4,0-0.6c0.2-0.5,0.7-1,0.2-1.6c-0.1-0.1,0.1-0.5,0.2-0.5
		c0.9-0.5,0.9-1.4,0.8-2.2c-0.1-1,0.2-1.7,0.8-2.4c0.1-0.1,0.2-0.5,0.1-0.6c-0.8-1.1,0.5-1.9,0.1-2.8c0.9,0.4,1.7,0.7,2.4,1
		c0.1-0.1,0.2-0.3,0.2-0.4c-0.3-0.3-0.7-0.6-1.2-1.1c0.3-0.1,0.7-0.3,1-0.4c-0.3-0.7-0.6-1.4-0.9-2.1c0.7-0.3,1.1-0.5,1.6-0.7
		C26.9,28.2,26.5,27.2,25.8,26.3z"/>
	<path class="st1" d="M22,19c-0.1-0.2-0.1-0.5-0.1-0.7c-0.2-0.4-0.5-0.9-0.7-1.3c-0.1-0.3-0.3-0.6-0.4-0.9c-0.8-0.6-0.9-1.3-0.7-2.2
		c-0.1-0.2-0.1-0.4-0.2-0.6c-0.2-0.1-0.4-0.1-0.5-0.2c0.1,0.5,0.1,1.1,0.2,1.6c-0.1,0-0.2,0-0.3,0.1c-0.2-0.4-0.4-0.8-0.7-1.1
		c0-0.1,0-0.1,0-0.2c-0.3-0.5-0.6-0.9-0.8-1.4c-0.2-0.3-0.3-0.6-0.4-1c-0.1,0.4-0.3,0.8-0.4,1.2c-0.1,0.8-0.1,1.6-0.2,2.3
		c-0.1,0.8-0.1,1.5-0.2,2.3c-0.1,1.5-0.1,3-0.2,4.5c-0.1,0.9-0.1,1.8-0.2,2.8c0,0.2,0,0.4,0,0.5c0.1,0.5,0.8,1-0.2,1.3
		c-0.2,2.1-0.5,4.3-0.7,6.4c0.1,0.2,0.1,0.5,0.2,0.7c0,0.1,0,0.1,0,0.2c0.1,0.2,0.1,0.4,0.2,0.5c0.4,0.3,0.9,0.6,1.3,0.9
		c0.1-0.4,0.2-0.7,0.4-1c0.1-0.2,0.3-0.5,0.6-0.9c0.1,0.5,0.1,0.7,0.1,0.9c0.1,0,0.2,0.1,0.3,0.1c0.5-0.7,1.3-1.3,1.6-2.1
		c0.3-0.9,0.4-1.4,1.4-1.5c0,0,0-0.1,0.1-0.2c-0.3-0.2-0.7-0.3-1.1-0.5c1.1-1,1.1-2.9,3-2.9c-0.4-0.7-0.9-1.3-1-1.9
		c-0.1-0.6,0.2-1.3,0.3-2.3c0.5,1,1,0.9,1.5,0.5c-0.2-0.4-0.4-0.9-0.6-1.3C23.1,20.8,22.5,19.9,22,19z"/>
	<polygon class="st2" points="23.6,89.6 23.6,89.6 23.6,89.6 	"/>
	<path class="st2" d="M27.6,88c-0.1-0.2-0.2-0.3-0.2-0.5c-0.2-0.8-0.6-1.4-1.5-1.4c-0.7,0-1.3-0.1-2-0.2c-1.7,0-3.4-0.1-5-0.2
		c-0.5,0-1-0.3-1.4-0.5c-1-0.5-2-0.3-3-0.4c-2-0.1-4-0.4-6-0.5c-0.2-0.1-0.4-0.1-0.5-0.2c-0.4,0.7,0.1,1.1,0.4,1.6
		c0.3,0.5,0.6,1,0.6,1.5c0.1,1.5,0.1,1.5,1.5,1.9c0.3,0.1,0.7,0,1,0c0.3,0.1,0.6,0.2,0.9,0.4c1.2-0.7,2.6,0,3.8-0.3
		c0.3-0.1,0.7-0.1,1-0.2c0.1,0,0.3-0.2,0.3-0.1c1,0.6,2.1,0.1,3.2,0.3c0.8,0.2,1.6,0.2,2.4,0.3c0.2,0,0.3,0.1,0.5,0.2
		c0.7,0.1,1.5,0.1,2.2,0.2c0.1,0.2,0.1,0.4,0.2,0.5c0.3,0.2,0.7,0.5,1,0.7c0.1-0.1,0.2-0.1,0.4-0.2c0-0.1,0.1-0.3,0.1-0.3
		c-1-0.9-0.2-1.5,0.2-2.2C27.6,88.2,27.6,88.1,27.6,88z"/>
	<path class="st3" d="M37.3,93c-0.2-0.2-0.3-0.6-0.4-1c-0.2-1-0.5-2-0.7-3c-0.1-0.1-0.3-0.1-0.4-0.1c-1.6,0-3.3,0-4.9-0.1
		c-0.2,0-0.4-0.2-0.7-0.3c-0.5,0.2-1.1,0.4-1.6,0.6c-0.1,0.1-0.1,0.1-0.2,0.2c-0.1,0.3-0.3,0.6-0.3,0.8c0.3,0.9-0.1,1.5-0.9,1.9
		c0,0.1-0.1,0.3-0.1,0.4c1.1,0.4,2.2,0.6,3.3-0.1c0.2,0.2,0.4,0.5,0.5,0.7c0.5,0.2,1.1,0.3,1.5,0.6c0.3,0.2,1,0.5,0.5,1.2
		c-0.1,0.1,0.2,0.5,0.3,0.8c0.2,0,0.4,0,0.5,0c1.4,0,2.7,0,4.1,0c0.1-0.1,0.2-0.1,0.3-0.2l0,0c0.5-0.4,1-0.8,1.5-1.2
		c-0.1-0.1-0.3-0.2-0.5-0.3C38.6,93.6,37.9,93.4,37.3,93z"/>
	<path class="st2" d="M23.4,64.5c-3-0.2-6-0.3-8.9-0.6c-0.9-0.1-1.8-0.7-2.7-1.1c-0.2,0.7,0.3,0.8,0.8,1.1c0.3,0.2,0.4,0.6,0.6,1
		c-0.3,0.2-0.6,0.5-0.9,0.4c-1.1-0.1-2.1,0.1-2.8,1.1c-0.1,0.2-0.6,0.3-0.7,0.2C8,65.8,7.7,66.5,7.2,67c0.9,0.4,1.2,1.1,0.7,2
		c0.2-0.1,0.5-0.3,0.7-0.4c0.7-0.1,1.3-0.1,2-0.2c2.2-0.2,4.3-0.3,6.5-0.5c0-0.1,0-0.2,0-0.3c-0.1-0.1-0.2-0.2-0.3-0.2
		c-0.3-0.1-0.7-0.1-1-0.2c-0.2-0.1-0.4-0.6-0.3-0.8c0.1-0.2,0.5-0.5,0.7-0.5c0.9,0,1.8,0.2,2.8,0.2c0.4,0,0.7,0,1.1,0
		c0.8,0.1,1.6,0.1,2.4,0.2c0.9,0,1.8-0.1,2.8-0.1c0.1-0.4,0.3-0.9,0.4-1.3c-0.1,0-0.3-0.1-0.4-0.1C24.7,64.7,24.1,64.6,23.4,64.5z"
		/>
	<path class="st4" d="M23.9,84c-0.1,0.2-0.3,0.5-0.4,0.5c-0.2-0.1-0.4-0.3-0.6-0.5c-0.1,0.2-0.2,0.5-0.5,0.9
		c-0.6-0.6-1.1-1.2-1.8-1.9c0.9-0.1,1.5-0.1,2.1-0.2c0-0.3,0-0.6,0-1.1c-0.3,0.3-0.5,0.4-0.7,0.5c0-0.1,0-0.2,0-0.3
		c-0.3-0.1-0.5-0.1-0.8-0.2c-0.1,0-0.2-0.1-0.3-0.2c-0.4-0.4-0.8-0.5-1.2,0.1c-0.5,0.6-1,0.7-1.8,0.2c-0.6-0.3-1.5-0.2-2.3-0.2
		c-0.7,0.1-1.1,0-1.2-0.8c-0.1,0-0.1,0-0.2,0c0,0.5,0,1,0,1.6c-1.1-0.6-2-0.9-2.7-0.7c-0.8-0.2-1.3-0.4-1.8-0.6
		c-0.2,0.2-0.4,0.4-0.6,0.5c-1.3,0.5-1.4,0.8-1.1,2.2c0.2,0.1,0.4,0.1,0.5,0.2c0.4-0.3,0.8-0.6,1.2-0.9c0.6-0.3,1-0.2,0.8,0.7
		c1,0,1.9,0,2.8,0c0.1-0.3,0.1-0.5,0.2-0.9c0.9,0.5,1.6,1.6,2.9,0.9c0.1-0.2,0.1-0.5,0.2-0.9c0.3,0.8,0.6,1.4,0.8,2.1
		c0.5,0.2,1,0.5,1.4,0.5c1.7,0.1,3.3,0.1,5,0.2c0.3-0.4,0.7-0.8,1-1.3c0.1-0.2,0.2-0.5,0.2-0.7c0.3-0.3,0.6-0.5,0.9-0.8
		c-0.4-0.1-0.9-0.1-1.3-0.2C24.5,83.3,24.2,83.7,23.9,84z"/>
	<path class="st5" d="M22.9,96.8c-0.7-0.2-1.4-0.1-2.1-0.1c-0.5,0.1-1,0.7-1.5,0c-0.1,0-0.1,0-0.2-0.1c-0.2,0.2-0.4,0.4-0.5,0.6
		c-0.1,0.3-0.2,0.6-0.3,0.9c-0.1-0.1-0.1-0.2-0.2-0.3c-0.4,0.1-0.7,0.2-1.1,0.3c-0.2,0-0.4,0-0.6,0c-0.8,0.5-1.6,0.4-2.3-0.2
		c-0.5-0.3-1.1-0.4-1.7-0.5c-0.5,0.2-1,0.3-1.5,0.5c-0.4,0-0.7,0.1-1.1,0.1c-0.5,0-1,0-1.5-0.1c-0.4,0.2-0.8,0.4-1.3,0.5
		c0.1,0.4,0.1,1,0.3,1.1c0.8,0.2,1.7,0.4,2.6,0.4c1.9-0.1,3.7-0.3,5.6-0.4c1.7-0.1,3.3-0.2,5-0.1c1.6,0.1,3.3-0.4,4.8,0.5
		c0.1-0.3,0.1-0.6,0.2-1c0.1-1,0.1-2.1,0.2-3.1c-0.2-0.1-0.5-0.2-0.7-0.4C24.6,97,23.9,97.1,22.9,96.8z"/>
	<path class="st6" d="M50.4,72.4c-0.3-0.1-0.7-0.2-0.8-0.4c-0.4-0.7-0.1-2.5,0.4-3.1c-0.4-0.8-0.9-1-1.7-0.6
		c-0.3,0.1-0.6,0.3-0.9,0.4c-0.3,0.3-0.7,0.6-1,0.9c-0.5,0.2-0.8,0.4-0.3,1.1c-0.4-0.1-0.6-0.2-0.8-0.3c-0.2,0-0.4-0.2-0.5-0.1
		c-0.4,0.3-0.7,0.7-1,1.1c-0.3,0.5-0.5,0.5-0.9,0.1c-0.2-0.2-0.5-0.2-0.8-0.2c-1.6,0.2-3.3,0.4-4.9,0.6c-0.3,0-0.5,0.3-0.7,0.5
		c0,0.4,0,0.7,0,1.1c0.3,0.3,0.7,0.5,0.9,0.8c0.6,1.1,1,1.2,2.1,0.9c-0.5,0-0.7,0-0.7-0.7c0-0.7-0.2-1.3-0.4-2.1c0.9,0,1.6,0,2.3,0
		c1.4,0.1,2.8,0.2,4.2,0.2c0.9,0,1.3,0.2,1.3,1.1c0.8,0.7,1.7,0.4,2.6,0.3c0.2-0.3,0.5-0.6,0.7-0.8l0-0.1c0,0,0.1,0,0.1,0
		c0.2,0,0.5,0,0.7,0c0.3-0.2,0.5-0.4,1-0.7C50.8,72.4,50.6,72.4,50.4,72.4z M48,69.8c0.5-0.5,0.9-0.9,1.3-1.3
		C49.2,70,48.9,70.3,48,69.8z"/>
	<path class="st2" d="M12.2,74.3c0-0.2,0-0.3,0-0.5c1.9-0.2,3.8-0.5,5.7-0.4c0.7,0,1.5,0,2.2,0c0-0.2,0-0.3,0-0.5
		c-0.6-0.3-1.2-0.5-1.9-0.8c-0.9-0.1-1.7-0.1-2.6-0.2c-0.9,0.1-1.8,0.2-2.7,0.4c-0.2,0.3-0.3,0.6-0.5,1.1c-0.3-0.2-0.4-0.4-0.7-0.6
		c-0.1,0.2-0.1,0.3-0.2,0.4c-0.2,0.2-0.5,0.5-0.8,0.5c-0.1,0-0.3-0.4-0.5-0.7c-0.2-0.3-0.3-0.5-0.4-0.8c-0.1,0-0.3,0-0.4,0
		c-0.2,0.2-0.3,0.4-0.5,0.7c-0.2,0.2-0.3,0.6-0.5,0.6c-0.2,0-0.5-0.3-0.7-0.4c0.2-0.2,0.3-0.4,0.5-0.6c0.1-0.1,0.2-0.2,0.3-0.4
		c-0.7-0.1-1.5-0.1-2.2-0.2c0.5,0.3,0.5,0.6,0.3,1.2c-0.1,0.3,0,0.9,0.2,1.1c0.5,0.3,1.1,0.5,1.7,0.7c1.4,0.4,2.3,1.4,2.9,2.6
		c0.2,0,0.5,0,0.7,0c1-0.2,1.8-0.5,2.3-1.6c0.5-1,1.9-0.6,2.9-0.7c1-0.1,2.1-0.1,3.1-0.1c-0.1-0.1-0.1-0.1-0.2-0.2
		C17.6,74.5,14.9,74.7,12.2,74.3z"/>
	<path class="st7" d="M20.8,70.5c-0.4-0.6-0.7-1.1-1.1-1.7c-2.1,0.4-4.3,0.7-6.4,1.1c-1.3-0.1-2.7-0.2-4-0.4c-0.3,0-0.5-0.1-0.8-0.1
		c-0.2,0.1-0.3,0.2-0.6,0.3c0.2,0.2,0.4,0.3,0.6,0.5c0,0.1,0,0.2,0.1,0.3c-1.4-0.4-2.1,0.5-3,1.1c0.2,0.1,0.5,0.1,0.7,0.2
		c0.7,0.1,1.5,0.1,2.2,0.2c0.3,0.1,0.6,0.1,0.9,0.2c0.1,0,0.3,0,0.4,0c0.4,0,0.8,0,1.1,0c-0.5-0.1-1-0.3-1.5-0.4c0-0.1,0-0.2,0-0.2
		c0.5,0,0.9-0.1,1.4-0.1c1.5,0.1,3,0.2,4.6,0.3c0.1,0,0.2,0.2,0.2,0.2c0.9,0.1,1.7,0.1,2.6,0.2c0.4-0.1,0.8-0.2,1.2-0.2
		c0.6,0,1.2,0.2,1.9,0.2C20.7,71.7,22.1,70.7,20.8,70.5z"/>
	<path class="st8" d="M22.1,92.2c-0.1,0.2-0.1,0.4-0.2,0.6c-0.1,0.1-0.2,0.3-0.4,0.3c-0.3,0.1-0.7,0.2-1.1,0.3
		c0.1-0.2,0.2-0.4,0.4-0.7c-0.2,0-0.4,0.1-0.6,0.1c-0.1-0.3-0.1-0.7-0.2-0.9c-0.5-0.3-1-0.7-1.4-0.9C18.4,91,18,91,17.7,91
		c-0.4,0-0.9,0.1-1.6,0.1c0.3-0.4,0.4-0.5,0.6-0.7c-0.8,0-1.4,0-2.1,0c0,0.4,0,0.8,0.1,1.2c0.2,0.2,0.4,0.5,0.6,0.7
		c0.1,0.2,0.1,0.5,0.2,0.7c0.2,0.1,0.4,0.2,0.5,0.3c0.4,0.2,0.7,0.3,1.2,0.5c-0.1,0.2-0.4,0.6-0.7,1.1c0.4,0.5,0.8,0.8,1.4,0.5
		c0.2-0.1,0.5,0,0.7,0.1c0.7,0.4,2.4-0.1,2.9-0.7c0.1,0.2,0.2,0.4,0.3,0.5c0.1-0.2,0.1-0.4,0.2-0.5c-0.1-0.3-0.4-0.5,0.2-0.7
		c0.5-0.2,0.8-0.9,1.1-1.3c0-0.1,0-0.2,0-0.4C22.9,92.3,22.5,92.3,22.1,92.2z"/>
	<path class="st1" d="M22.4,63.8c0.3,0,0.6-0.1,1-0.2c-0.2-0.3-0.3-0.6-0.5-0.8c-1.3,0.1-2.6,0.1-3.9,0.2c-0.3,0-0.6-0.1-0.8-0.3
		c-0.6-1-1.5-1-2.4-0.7c-0.9-0.1-1.8-0.3-2.8-0.4c0.2-0.5,0.4-0.9,0.6-1.2c-0.4,0.2-0.9,0.9-1.3,0c-0.1,0-0.2,0-0.4,0
		c-0.2,0.7-0.4,1.5-0.6,2.3c0.1,0,0.2,0.1,0.4,0.3c0.9,0.4,1.7,1,2.7,1.1c3,0.3,5.9,0.4,8.9,0.6c0.1-0.1,0.2-0.2,0.5-0.5
		C23.3,63.9,22.8,63.9,22.4,63.8C22.4,63.8,22.4,63.8,22.4,63.8z"/>
	<path class="st0" d="M20.7,89.1c-1.1-0.3-2.2,0.3-3.2-0.3c-0.1,0-0.2,0.1-0.3,0.1c-0.3,0.1-0.7,0.1-1,0.2c-1.3,0.3-2.6-0.4-3.8,0.3
		c-0.1,0.1-0.2,0.2-0.4,0.4c0.7,0.6,1.5,1.1,2.2,1.7c0.1,0.1,0.3,0.1,0.4,0.2c0-0.4,0-0.7-0.1-1.2c0.7,0,1.4,0,2.1,0
		c-0.2,0.2-0.3,0.3-0.6,0.7c0.7-0.1,1.2-0.1,1.6-0.1c0.3,0,0.7,0,1,0.1c0.5,0.2,0.9,0.5,1.4,0.9c0,0.2,0.1,0.6,0.2,0.9
		c0.2,0,0.4-0.1,0.6-0.1c0.2-0.2,0.3-0.4,0.5-0.6c0.2,0.2,0.4,0.4,0.6,0.6c0.1-0.2,0.1-0.4,0.2-0.6c-0.4-0.3-0.8-0.6-1.2-1
		c0.2,0,0.5-0.1,0.7-0.1c0.4-0.2,1,0,1-0.8c0-0.2,0.7-0.4,1-0.6c-0.2-0.1-0.3-0.2-0.5-0.2C22.3,89.3,21.5,89.3,20.7,89.1z"/>
	<path class="st9" d="M53.8,66.3c-0.6,0.3-1.2,0.6-1.8,0.9c-0.6,0.5-1.2,1-1.8,1.5c-0.1,0-0.1,0.1-0.2,0.1c-0.6,0.6-0.9,2.4-0.4,3.1
		c0.1,0.2,0.5,0.3,0.8,0.4c0.2,0.1,0.4,0,0.8,0c-0.5,0.3-0.7,0.5-1,0.7c0.3,0.3,0.5,0.6,0.8,0.9c0.4-0.1,0.8-0.1,1.3-0.2
		c0.4-0.6,0.7-1.2,1.1-1.9c0.4-0.9,0.8-1.8,0-2.8c-0.7,0.4-1.4,0.7-2.1,1.1c0-0.1-0.1-0.1-0.1-0.2c1-0.8,2.1-1.5,3.1-2.3
		C54,67.3,53.9,66.8,53.8,66.3z"/>
	<path class="st10" d="M28.6,29.8c-0.3-1.7-0.7-3.3-0.3-5c-0.1-0.7-0.2-1.3-0.4-2c-0.2-0.6-0.3-1.1-0.5-1.7c0.1,1.1,0.1,2.1,0.2,3.2
		c-0.1,0-0.2,0-0.3,0c-0.2-0.6-0.3-1.3-0.5-1.9c-0.4-0.1-0.8-0.3-1.1-0.4c-0.4,0-0.6,0-0.3,0.5c0.2,0.4,0.3,0.8,0.5,1.2
		c0.1,0.6,0.2,1.1-0.3,1.7c-0.1,0.1-0.1,0.7,0.1,0.9c0.7,0.9,1.1,1.9,1.1,3.1c0.1,0.5,0.2,1,0.3,1.5c0.1,0.2,0.3,0.3,0.4,0.5
		c0-0.2,0.1-0.4,0.1-0.6c0-0.4,0.1-0.7,0.1-1.1c0.1,0,0.2,0,0.2,0c0.1,0.3,0.3,0.6,0.4,0.9c0.1-0.2,0.3-0.4,0.4-0.6
		C28.8,29.9,28.7,29.9,28.6,29.8z"/>
	<path class="st1" d="M7.9,69.7c0.2-0.1,0.4-0.2,0.6-0.3c-0.2-0.1-0.4-0.2-0.5-0.2c-0.8-0.5-1.6-0.7-2.6-0.5
		c-0.8-0.2-1.5-0.4-2.3-0.6c-0.6,0-1.2,0-1.7,0.2c-0.2,0.1-0.3,0.5-0.4,0.8c0.4-0.1,0.8-0.2,1.2-0.3c0.2,0.8,0.3,1.6,0.5,2.4
		c1,0.2,2,0.4,2.9,0.5c0.9-0.7,1.6-1.6,3-1.1c0-0.1,0-0.2-0.1-0.3C8.3,70.1,8.2,69.9,7.9,69.7z"/>
	<path class="st5" d="M60.6,74.6c0-0.1-0.1-0.1-0.1-0.2c-0.4-0.1-0.9-0.2-1.3-0.2c-1.4,0-2.8,0.1-4.3,0.1c-0.5,0-1.1-0.1-1.6-0.2
		c0-0.1,0-0.2,0-0.3c0.4,0,0.9-0.1,1.3-0.1c-0.9-0.2-1.4-0.6-1.3-1.6c-0.4,0.6-0.7,1.2-1.1,1.9c-0.1,0.4-0.1,0.9-0.2,1.5
		c0.4,0.9,1.6,0.9,2.6,1.3c0.2,0.1,0.5,0,0.7-0.1C56,76,56.8,76,57.6,76c-0.2-0.1-0.3-0.1-0.6-0.3c0.2-0.1,0.4-0.1,0.5-0.1
		C58.6,75.3,59.6,74.9,60.6,74.6z"/>
	<path class="st11" d="M32.5,70.2c-1-0.4-1.1,0.6-1.8,0.9c0.1-0.5,0.1-0.8,0.2-1.1c-0.2,0-0.5-0.1-0.7,0c-0.3,0.1-0.6,0.3-1,0.4
		c-0.1,0.1-0.1,0.2-0.2,0.4c-0.4,0.5-0.7,1-1.1,1.4c0.5,0,1,0,1.4,0.1c0.1,0,0.1,0.2,0.2,0.3c0,0.1,0,0.1,0,0.2c0.6,0,1.3,0,2.2,0
		c-0.7,0.3-1.1,0.5-1.6,0.7c1.2-0.1,2.3-0.1,3.5-0.2c-0.1-0.2-0.3-0.4-0.4-0.5c-0.3-0.1-0.6-0.2-0.8-0.2c0-0.1,0-0.2,0-0.2
		c0.2,0,0.3-0.1,0.5-0.1c-0.3-0.1-0.5-0.2-1-0.3c0.9-0.3,1.5-0.6,2.2-0.8C34,70.1,33.1,70.4,32.5,70.2z"/>
	<path class="st3" d="M31.5,80.3c-0.7-0.1-0.9-0.4-0.6-1c0.2-0.4,0.3-0.8,0.5-1.3c-0.2-0.1-0.4-0.2-0.6-0.3c-0.5,0.1-1,0.1-1.4,0.2
		c-0.7,0.2-1.5,0.5-2.2,0.7c0,0,0,0.1,0,0.1c0.1,0.2,0.1,0.3,0.2,0.5c0.5,0.7,1,1,1.9,0.7c0.8-0.2,1.6,0.7,1.7,1.7
		c-0.7,0-1.3-0.1-2-0.1c0.1,0.2,0.2,0.5,0.3,0.7c0.8-0.1,1.7-0.1,2.5-0.2c0.6,0,0.9-0.5,0.7-0.9C32.4,80.8,31.9,80.4,31.5,80.3z"/>
	<path class="st0" d="M53.2,96.6c-2.4-0.1-4.9-0.1-7.3-0.2c-1.1,0-2.1-0.1-3.2-0.2c-0.2,0.2-0.5,0.4-0.7,0.6
		c1.7,0.2,3.4,0.5,5.1,0.7c0.7,0.1,1.4-0.1,2.1-0.2c1.9,0,3.8,0,5.7,0c0.5-0.1,1.1-0.1,1.6-0.2c0-0.1,0-0.2,0-0.3
		C55.3,96.8,54.2,96.7,53.2,96.6z"/>
	<path class="st12" d="M13.2,81c-0.3-0.1-0.6-0.3-0.9-0.4c-0.9-0.1,0-0.6-0.3-1c-0.2,0-0.4-0.1-0.7-0.1c-0.9,0-1.8,0.1-2.6,0.1
		c-0.2,0-0.6,0.3-0.6,0.5c0,0.2,0.2,0.6,0.4,0.7c0.3,0.2,0.8,0.4,1.2,0.5c0.5,0.2,1.1,0.3,1.8,0.6c0.7-0.2,1.6,0.1,2.7,0.7
		c0-0.6,0-1.1,0-1.6C13.9,81,13.5,81.1,13.2,81z"/>
	<path class="st13" d="M44.9,72.6c-1.4,0.1-2.8-0.1-4.2-0.2c-0.7,0-1.4,0-2.3,0c0.1,0.7,0.4,1.4,0.4,2.1c0,0.6,0.3,0.7,0.7,0.7
		c-0.2-0.5-0.3-1-0.6-1.6c0.6,0,1,0,1.4,0.1c2,0.3,3.9,0.7,5.9,0.1C46.2,72.8,45.8,72.5,44.9,72.6z"/>
	<path class="st5" d="M25.8,22c-0.2-0.4-0.5-0.9-0.7-1.3c-0.3-0.3-0.6-0.7-1-0.9c-0.5-0.4-1.1-0.7-1.6-1.1c-0.1,0.8,0.6,1.1,1.1,1.5
		c0.6,0.5,0.7,0.9,0,1.4c0.2,0.4,0.4,0.9,0.6,1.3c0.2,0.4,0.5,0.9,0.7,1.3c0.1,0.2,0.4,0.4,0.5,0.4c0.1,0,0.3-0.3,0.4-0.5
		c0.1-0.1,0.1-0.3,0.2-0.5c-0.2-0.4-0.3-0.8-0.5-1.2C25.2,22,25.4,22,25.8,22z"/>
	<path class="st14" d="M35.7,9.5c0-2,0-3.9,0-5.9c-0.1,0-0.2,0-0.3,0c-0.1,0.2-0.2,0.3-0.2,0.5c0,1.7-0.4,3.4,0,5.1
		c0.4,1.9,0.2,4,0.2,6c0,0,0.1,0,0.1,0c0-0.4,0-0.8,0-1.2c0.1,0,0.1,0,0.2,0c0,0.2,0.1,0.4,0.1,0.7c0.1-0.1,0.1-0.1,0.2-0.2
		c0-0.1,0-0.1,0-0.1c-0.1-1.3-0.2-2.7-0.4-4C35.7,10,35.7,9.8,35.7,9.5z"/>
	<path class="st15" d="M31.9,83.8c-0.6-0.1-1.1-0.3-1.7-0.5c-0.5-0.2-1.1-0.3-0.9-1c-0.1-0.2-0.2-0.5-0.3-0.7l-0.1,0
		c-0.1,0.3-0.1,0.6-0.2,0.8c-0.6,0.2-1.1,0.3-1.7,0.5c-0.2,0.1-0.5,0.2-0.7,0.4c0.2,0,0.4,0.2,0.5,0.1c1.1-1,1.9,0.4,2.9,0.3
		c0,0.3,0,0.7,0,1c0.1,0.4,0.2,0.8,0.2,1.2c0.2,0,0.3,0,0.5-0.1c0.2-1.4,1.1-0.8,1.8-0.7C32.5,84.5,32.7,83.9,31.9,83.8z"/>
	<path class="st2" d="M14.2,91.5c-1.6,0.1-2.2-0.3-2.4-1.5c-0.7,0.2-0.9,0.9-0.6,1.3c0.5,0.7,1.3,1.3,2.1,1.8
		c0.2,0.2,0.8-0.1,1.2-0.3c0.2-0.1,0.5-0.3,0.7-0.4c-0.2-0.2-0.4-0.5-0.6-0.7C14.5,91.6,14.3,91.5,14.2,91.5z"/>
	<path class="st16" d="M7.2,67c-1,0-2,0-3,0c0.3,0.2,0.8,0.4,1,0.7c0.2,0.2,0.1,0.6,0.1,0.9c0.9-0.2,1.8,0,2.6,0.5
		c0-0.1,0-0.1,0-0.2C8.4,68.1,8.2,67.4,7.2,67z"/>
	<path class="st11" d="M41.9,93.9c-1.2-0.6-2.4-1.2-3.6-1.7c-0.8-0.3-1-0.6-0.7-1.1c-0.2,0.3-0.4,0.6-0.6,0.9c0.1,0.3,0.1,0.8,0.4,1
		c0.6,0.4,1.2,0.6,1.9,0.8c1-1,1.7-0.4,1.9,0.7c0.3,0,0.6-0.1,0.9-0.1c0,0.4,0,0.6,0,0.9C42.7,94.6,42.7,94.3,41.9,93.9z"/>
	<path class="st11" d="M37.5,91.1c0.1-0.1,0.1-0.2,0.2-0.4C37.6,90.9,37.6,91,37.5,91.1z"/>
	<path class="st17" d="M38.7,84.7c-0.1-0.1-0.1-0.4-0.2-0.5c-0.3-0.2-0.6-0.4-0.9-0.6c0.1,0.4,0.3,0.7,0.3,1.1
		c0,0.2-0.1,0.4-0.1,0.6c0.2,0.1,0.3,0.3,0.5,0.4c0.9,0.5,1.9,1,2.8,1.4c0.3-0.1,0.7-0.2,1-0.3c-0.6-0.4-1.2-0.9-1.8-1.3
		C39.8,85.1,39.2,84.9,38.7,84.7z"/>
	<path class="st18" d="M30.6,76c-0.1-0.2-0.2-0.3-0.2-0.5c-1.1-0.9-1.4-1.5-1.1-2.6c0.1-0.1,0.2-0.1,0.4-0.2c0-0.1,0-0.1,0-0.2
		c-0.6,0-1.2,0.1-1.8,0.1c-0.1,0.1-0.1,0.1-0.2,0.2c1.3,0.4,1.5,1.1,0.8,2.1c0.4,1,0.2,1.3-0.8,1.5c-0.3,0-0.5,0.2-0.8,0.3
		c0,0.1,0,0.1,0,0.2c0.2,0,0.3,0,0.5,0c0.6-0.1,1.3-0.1,1.9-0.2c0.4-0.2,0.9-0.4,1.3-0.6C30.6,76.1,30.6,76.1,30.6,76z"/>
	<path class="st5" d="M15.3,93.1c0.1,1.2,0,1.4-1.1,1.5c-0.9,0.1-1.3,0.6-1.3,1.4c0.1,0.1,0.2,0.2,0.4,0.3c0.4-0.2,0.9-0.5,1.3-0.7
		c0.2-0.1,0.5-0.2,0.7-0.4c0.4-0.1,0.7-0.2,1.1-0.4c0.3-0.4,0.5-0.8,0.7-1.1c-0.5-0.2-0.8-0.3-1.2-0.5
		C15.7,93.3,15.5,93.2,15.3,93.1z"/>
	<path class="st19" d="M11.5,77.3c-0.6,0.7-0.9,1.4-0.2,2.2c0.3,0,0.5,0.1,0.7,0.1c0.3,0.4-0.6,0.9,0.3,1c0.2-0.3,0.5-0.6,0.7-0.9
		c0-0.2,0-0.4,0-0.5c0.1-0.4,0.2-0.7,0.4-1.4c-0.3-0.1-0.7-0.3-1.2-0.5C11.9,77.3,11.7,77.3,11.5,77.3z"/>
	<path class="st20" d="M39.2,93.9c0.2,0.1,0.3,0.2,0.5,0.3c-0.5,0.4-1,0.8-1.5,1.2c0.7,0.1,1.5,0.1,2.2,0.2c0.6-0.1,1.1-0.1,1.7-0.2
		c0-0.3,0-0.5,0-0.9c-0.3,0-0.6,0.1-0.9,0.1C40.9,93.5,40.2,92.9,39.2,93.9z"/>
	<path class="st21" d="M36.3,89.1c0.2,1,0.5,2,0.7,3c0.3-0.4,0.5-0.9,0.8-1.3c0.1-0.5,0.1-1.1,0.2-1.6c0.5-0.3,1-0.6,1.7-0.9
		c-0.8,0.1-1.5,0.1-2.2,0.1C37,88.6,36.6,88.8,36.3,89.1z"/>
	<path class="st22" d="M42.2,86.7c-0.3,0.1-0.7,0.2-1,0.3c-0.7,0.3-1.4,0.6-2.1,0.9c-0.5,0.2-1.1,0.3-1.7,0.4c0.7,0,1.4-0.1,2.2-0.1
		c-0.7,0.4-1.2,0.6-1.7,0.9c1.7-0.4,3.4-0.9,5.2-1.3c-0.2-0.5-0.4-0.8-0.6-1.2C42.4,86.7,42.3,86.7,42.2,86.7z"/>
	<path class="st23" d="M49.5,79.3c-2.9,0.1-5.8,0.2-8.8,0.4c0.1,0.2,0.3,0.5,0.4,0.7c0.4-0.1,0.8-0.2,1.2-0.4c1-0.1,2-0.1,2.9-0.2
		c1.7-0.1,3.4-0.2,5.1-0.3c0-0.1,0-0.2,0-0.3C50.1,79.3,49.8,79.3,49.5,79.3z"/>
	<path class="st2" d="M29.2,2.3C29.3,1.1,29.3,1,28,1c-0.3,0-0.6,0.2-1,0.3c0.4,0,0.8,0,1.1,0.1c0.3,0.1,0.6,0.4,0.6,0.6
		c0.1,1.2,0.1,2.4,0.1,3.6c0,0.7-0.3,1.1-1.1,1.1c-0.1-0.4-0.1-0.7-0.1-1.1c0,0.4-0.1,0.9,0,1.3c0,0.1,0.7,0.2,0.9,0.1
		c0.4-0.3,0.6-0.7,0.9-1.1c0.1-0.1,0-0.4-0.1-0.6C29.3,4.4,29.1,3.3,29.2,2.3z"/>
	<path class="st2" d="M18.9,11.1c-0.3,0.1-0.5,0.2-0.8,0.2c0,0.1,0,0.1,0,0.2c0.4,0,0.7,0,1.1-0.1c0.7-0.1,1.4,0,1.7,0.7
		c0.3,0.8-0.5,0.9-0.9,1.2c0.1,0.2,0.1,0.4,0.2,0.6c1.1,0.4,0.8,1.4,0.7,2.2c0.1,0.3,0.3,0.6,0.4,0.9c0.1-0.1,0.2-0.3,0.2-0.4
		c-0.1-1.3-0.2-2.6-0.2-3.9C21.2,11.3,20.2,10.7,18.9,11.1z"/>
	<path class="st24" d="M56.3,73.6c-0.6,0-1.1,0-1.7,0c-0.4,0-0.9,0.1-1.3,0.1c0,0.1,0,0.2,0,0.3c0.5,0.1,1.1,0.2,1.6,0.2
		c1.4,0,2.8,0,4.3-0.1c0.4-0.1,0.8-0.2,1.2-0.3c0-0.1,0-0.2,0-0.2C59,73.6,57.7,73.6,56.3,73.6z"/>
	<path class="st25" d="M27.2,13.4c-0.2,0.1-0.3,0.1-0.5,0.2c0,0.1,0,0.1-0.1,0.2c0.1,1,0.1,2,0.2,2.9c0,0.8,0,1.6,0.1,2.4
		c0,0.4,0.2,0.8,0.3,1.3c0.1-0.6,0.2-1.2,0.3-1.9c-0.1-0.9-0.2-1.7-0.2-2.6C27.3,15.1,27.3,14.3,27.2,13.4z"/>
	<path class="st26" d="M13.3,56.9c-0.2-0.3-0.4-0.6-0.5-0.9c-0.2,0.9-0.5,1.7-0.7,2.6c-0.6,0.6-0.1,1.1,0,1.7c0.1,0,0.2,0,0.4,0
		c0.4-0.5,1.3-0.8,0.5-1.7c0.2-0.2,0.4-0.4,0.6-0.5C13.4,57.6,13.4,57.3,13.3,56.9z"/>
	<polygon class="st2" points="27.3,20.4 27.3,20.4 27.3,20.4 	"/>
	<path class="st2" d="M26.9,16.7c-0.5,0-1.4,0.2-1.5,0c-0.3-0.7-0.4-1.6-0.5-2.4c-0.4,0.3-1,0.8-0.4,1.2c0.7,0.6,0.3,2,1.7,1.9
		c0,0,0.2,0.4,0.1,0.7c0,0.3-0.2,0.5-0.3,0.8c0.2,0.2,0.4,0.5,0.6,0.7c0.2,0.3,0.4,0.5,0.6,0.8c0,0,0.1,0,0.1,0
		c-0.1-0.4-0.3-0.8-0.3-1.2C26.9,18.3,26.9,17.5,26.9,16.7z"/>
	<path class="st27" d="M39,81c-0.5,0-1,0.1-1.5,0.1c-0.3,0.7-0.6,1.3-0.8,1.8c0.4,0.3,0.6,0.5,0.8,0.7c0.3,0.2,0.6,0.4,0.9,0.6
		c-0.1-0.5-0.1-1-0.2-1.5c-0.1-0.3-0.1-0.7-0.2-1c0.1,0,0.2,0.1,0.3,0.1C38.6,81.5,38.8,81.3,39,81z"/>
	<path class="st28" d="M40.5,79.7c-0.7,0.1-1.5,0.2-2.2,0.4c-0.1,0.1-0.3,0.1-0.4,0.2c-0.1,0.2-0.2,0.5-0.4,0.7c0,0.1,0,0.1,0,0.2
		c0.5,0,1-0.1,1.5-0.1c0.7,0,1.5,0.2,2.1-0.6c-0.1-0.2-0.3-0.5-0.4-0.7C40.6,79.7,40.6,79.7,40.5,79.7z"/>
	<path class="st29" d="M39.5,76.2c0-0.1-0.1-0.2-0.1-0.3c-0.8,0-1.6,0-2.4,0c0,0,0,0.1,0,0.1c0.3,0.1,0.7,0.2,1,0.4
		c-0.2,0.3-0.3,0.5-0.4,0.8c0.2,0.1,0.4,0.3,0.6,0.4c0.2,0,0.3,0,0.5-0.1c0.3-0.1,0.6-0.2,1-0.3c-0.1-0.3-0.2-0.5-0.3-0.8
		C39.3,76.4,39.5,76.3,39.5,76.2z"/>
	<path class="st30" d="M29.8,87c-0.5,0.3-1,0.6-1.5,0.9c0.1,0.4,0.2,0.7,0.3,1.1c0.5-0.2,1.1-0.4,1.6-0.6
		C30.6,87.9,30.5,87.4,29.8,87z"/>
	<path class="st31" d="M27.1,10.3c0-1.3,0-2.6,0-3.8c-0.1-0.2-0.2-0.5-0.3-0.7c-0.5,0.6,0,1.1,0,1.7c0,2.1,0,4.1,0,6.2
		c0.2-0.1,0.3-0.1,0.5-0.2c0-0.9-0.1-1.7-0.1-2.6C27.1,10.6,27.1,10.4,27.1,10.3z"/>
	<path class="st11" d="M40.7,85.1c-1.1-0.6-1.9-1.4-2.4-2.4c0.1,0.5,0.1,1,0.2,1.5c0.1,0.2,0.1,0.5,0.2,0.5c0.5,0.3,1.1,0.4,1.7,0.7
		c0.6,0.4,1.2,0.9,1.8,1.3c0.1,0,0.2,0,0.4,0C42.4,85.6,41.4,85.4,40.7,85.1z"/>
	<path class="st27" d="M28.9,25.2c0-0.1-0.1-0.1-0.1-0.2c-0.1-0.1-0.3-0.1-0.4-0.2c-0.4,1.7,0,3.4,0.3,5c0,0.1,0.2,0.1,0.3,0.2
		c-0.1-1.1-0.1-2.2-0.2-3.3c0-0.4,0.1-0.8,0.2-1.2C28.9,25.4,28.9,25.3,28.9,25.2z"/>
	<path class="st5" d="M32.2,24.2c0,0.1,0,0.2,0,0.4c0.8,0.1,1.6,0,2.3,0.3c0.6,0.2,1,0.3,1.5,0.1c0.1-0.1,0.1-0.2,0.2-0.4
		c-0.1-0.1-0.1-0.2-0.2-0.3C34.8,24.2,33.5,24.2,32.2,24.2z"/>
	<path class="st32" d="M25.6,9.5c-0.1,1.4-0.2,2.8-0.4,4.2c0,0.1,0.1,0.1,0.1,0.2c0,0,0.1,0,0.1,0c0.2-0.7,0.4-1.3,0.6-2
		c0.1-0.9,0.1-1.7,0.2-2.6c-0.1-0.2-0.2-0.4-0.3-0.9C25.7,9,25.7,9.3,25.6,9.5z"/>
	<path class="st33" d="M5.3,67.7c-0.2-0.3-0.7-0.5-1-0.7c-0.4,0.4-0.8,0.7-1.1,1.1c0.8,0.2,1.5,0.4,2.3,0.6
		C5.4,68.4,5.4,67.9,5.3,67.7z"/>
	<path class="st34" d="M38.1,77.5c-0.2-0.1-0.4-0.3-0.6-0.4c-0.2,0.2-0.4,0.4-0.5,0.6c0.5,0.6,0,1-0.2,1.5c0.4,0.4,0.7,0.7,1.1,1.1
		c0.1-0.1,0.3-0.1,0.4-0.2c-0.1-0.3-0.2-0.6-0.4-0.8C38,78.7,38.1,78.1,38.1,77.5z"/>
	<path class="st35" d="M31.2,77.2c0,0-0.2-0.2-0.3-0.4c-0.1-0.2-0.2-0.4-0.4-0.7c-0.4,0.2-0.9,0.4-1.3,0.6l0,0
		c0.2,0.2,0.4,0.3,0.6,0.5c-0.2,0.3-0.4,0.4-0.6,0.6l0,0c0.5-0.1,1-0.1,1.4-0.2c0.4,0,0.7,0,1.1,0C31.6,77.5,31.9,76.8,31.2,77.2z"
		/>
	<path class="st18" d="M28.4,85.2c0,0.6-0.1,1.2,0.6,1.5c0.2-0.1,0.4-0.2,0.5-0.2c0.2-0.2,0.4-0.4,0.6-0.6c-0.1-0.4-0.2-0.8-0.2-1.2
		C29.3,84.8,28.8,85,28.4,85.2z"/>
	<path class="st11" d="M37.5,83.6c-0.2-0.2-0.4-0.3-0.8-0.7c0.2-0.4,0.5-1.1,0.8-1.8c0-0.1,0-0.1,0-0.2c-0.7,0-0.8,0.7-0.9,1.1
		c-0.3,1-0.3,2,0.8,2.6c0.2,0.1,0.2,0.3,0.3,0.5c0-0.2,0.1-0.4,0.1-0.6C37.8,84.3,37.7,83.9,37.5,83.6z"/>
	<path class="st36" d="M35.6,17.2c0,0.2,0,0.5-0.1,0.7c0.1,0.7,0.1,1.5,0.2,2.2c0.1,0.4,0.1,0.8,0.2,1.1c0.2-0.1,0.3-0.1,0.5-0.2
		c-0.1-1.4-0.3-2.7-0.4-4.1C35.9,17.1,35.7,17.2,35.6,17.2z"/>
	<path class="st27" d="M33.3,72.7c0.1,0.2,0.3,0.4,0.4,0.5c0.9,0.1,1.8,0.1,2.8,0.2c0-0.4,0-0.7,0-1.1
		C35.4,72.5,34.3,72.6,33.3,72.7z"/>
	<path class="st14" d="M27.3,20.4c-0.1,0-0.1,0-0.2,0c-0.1,0.7-0.1,1.4-0.2,2c0.2,0.6,0.3,1.3,0.5,1.9c0.1,0,0.2,0,0.3,0
		c-0.1-1.1-0.1-2.1-0.2-3.2C27.4,20.8,27.3,20.6,27.3,20.4z"/>
	<path class="st2" d="M11.4,96.1c-0.5,0-0.8,0.2-0.7,0.6c0.5,0.3,1.1-0.7,1.4,0.2c0.4-0.1,0.8-0.1,1.1-0.2c0-0.1,0.1-0.3,0.1-0.4
		c-0.1-0.1-0.2-0.2-0.4-0.3C12.4,96.1,11.9,96.1,11.4,96.1z"/>
	<path class="st37" d="M39.4,75.8c0,0.1,0.1,0.2,0.1,0.3c1.8,0,3.5,0,5.3,0c-0.8-0.2-1.7-0.3-2.5-0.3C41.3,75.8,40.4,75.8,39.4,75.8
		z"/>
	<path class="st38" d="M30.4,75.5c0.1,0.2,0.2,0.3,0.2,0.5c0.2,0,0.5,0,0.7,0c1.3-0.1,2.6-0.1,3.9-0.2c-0.3-0.1-0.7-0.1-1-0.1
		C32.9,75.6,31.6,75.6,30.4,75.5z"/>
	<path class="st5" d="M12.3,55.4c-0.1,0.7-0.1,1.3-0.2,2c0,0.4-0.1,0.8-0.1,1.1c0.2-0.9,0.5-1.7,0.7-2.6c0-0.6,0-1.1,0-1.7
		C12.6,54.7,12.3,55.1,12.3,55.4z"/>
	<path class="st32" d="M26.9,2.9c0,0.6,0,1.2,0,1.8c-0.1,0.3-0.1,0.6-0.2,1c0.1,0.2,0.2,0.5,0.3,0.7c0.1-0.5,0.1-1,0.2-1.5
		c0.1-0.6,0.1-1.1,0.1-1.7C27.4,3.1,27.1,3,26.9,2.9z"/>
	<path class="st2" d="M15.8,22c0.1,0.4-0.1,0.9,0,1.4c0,0.3,0.3,0.6,0.4,0.9c0.1-0.9,0.1-1.8,0.2-2.8C15.9,21.3,15.8,21.4,15.8,22z"
		/>
	<path class="st39" d="M12,97c-0.4,0.2-0.9,0.3-1.3,0.5c0.1,0.2,0.1,0.4,0.2,0.5c0.5-0.2,1-0.3,1.5-0.5c0.5-0.1,1.2,0.1,1.4-0.7
		c-0.2,0-0.4,0-0.6,0C12.8,96.9,12.4,96.9,12,97z"/>
	<path class="st2" d="M4,73.3c0.1,0.3,0.4,0.6,0.7,0.6c0.2,0,0.5-0.3,0.8-0.5c-0.3-0.3-0.5-0.5-0.9-0.9C4.3,72.9,4,73.2,4,73.3z"/>
	<path class="st5" d="M1,69.1c0.2,0.3,0.4,0.6,0.5,0.9c0.2,0.4,0.5,0.7,0.7,1.1c0.1,0,0.2,0,0.4,0c-0.2-0.8-0.3-1.5-0.5-2.4
		C1.8,68.8,1.4,68.9,1,69.1z"/>
	<path class="st5" d="M53.2,83c0-0.1,0-0.2,0-0.3c-0.6,0-1.3-0.1-1.9-0.1C52,83.5,52.3,83.5,53.2,83z"/>
	<path class="st40" d="M49.5,73.1L49.5,73.1c-0.3,0.3-0.5,0.6-0.8,0.9c0.7,0,1.5,0,2.2,0c-0.3-0.3-0.5-0.6-0.8-0.9
		C50,73.1,49.8,73.1,49.5,73.1z"/>
	<path class="st5" d="M11.8,90c0.1,1.2,0.7,1.6,2.4,1.5c-0.7-0.6-1.5-1.1-2.2-1.7C12,89.9,11.9,89.9,11.8,90z"/>
	<path class="st41" d="M40.5,95.9c-0.1,0.2-0.3,0.4-0.4,0.6c0.6,0.1,1.2,0.2,1.9,0.4c0.2-0.2,0.5-0.4,0.7-0.6
		C41.9,96.1,41.2,96,40.5,95.9L40.5,95.9z"/>
	<path class="st2" d="M15.4,25.2c-0.1,0.4-0.1,1,0.6,0.9c1-0.3,0.3-0.8,0.2-1.3C15.9,24.9,15.5,25,15.4,25.2z"/>
	<path class="st32" d="M18.1,11.4c-0.2-0.2-0.5-0.4-0.7-0.6c0,0.1,0,0.2,0,0.4c0.1,0.3,0.3,0.7,0.4,1c0.3,0.5,0.6,0.9,0.8,1.4
		c-0.2-0.7-0.4-1.3-0.6-2C18.1,11.5,18.1,11.4,18.1,11.4z"/>
	<path class="st42" d="M35.7,14c-0.1,0-0.1,0-0.2,0c0,0.4,0,0.8,0,1.2c0,0.7,0,1.3,0.1,2c0.1-0.1,0.3-0.1,0.4-0.2
		c-0.1-0.8-0.1-1.6-0.2-2.4C35.8,14.4,35.8,14.2,35.7,14z"/>
	<path class="st3" d="M30.6,85.8c0.6-0.2,1.2-0.5,1.8-0.7C31.7,85,30.7,84.4,30.6,85.8z"/>
	<path class="st3" d="M31.3,76c-0.2,0-0.5,0-0.7,0c0,0.1,0,0.1,0,0.2c0.1,0.2,0.2,0.4,0.4,0.7c0.1,0.1,0.3,0.4,0.3,0.4
		c0.6-0.4,0.4,0.3,0.6,0.5C32.2,77.2,31.8,76.2,31.3,76z"/>
	<path class="st2" d="M25.6,7.6c0,0.7,0,1.3,0,1.9c0.1-0.3,0.1-0.5,0.2-1.1c0.2,0.5,0.3,0.7,0.3,0.9C26.7,8.5,26.6,8.2,25.6,7.6z"/>
	<path class="st43" d="M57,75.7c0.3,0.1,0.4,0.2,0.6,0.3c0.9,0,1.8,0,2.7,0c0-0.1,0-0.3,0-0.4c-0.9,0-1.8,0-2.7,0
		C57.4,75.7,57.3,75.7,57,75.7z"/>
	<path class="st28" d="M8.3,98.1c0.5,0,1,0.1,1.5,0.1c0.4,0,0.7-0.1,1.1-0.1c-0.1-0.2-0.1-0.4-0.2-0.5C9.9,97.7,9.1,97.9,8.3,98.1z"
		/>
	<path class="st5" d="M28.9,25.2c0,0.1,0,0.2,0.1,0.4c0.5,0.5,1,0.5,1.7,0.1c-0.3-0.2-0.4-0.3-0.6-0.5
		C29.6,25.1,29.3,25.2,28.9,25.2z"/>
	<path class="st5" d="M44.8,83.7c0.7,0.1,1.4,0.1,2.1,0.2c0-0.1,0-0.2,0-0.4c-0.7,0-1.4,0-2.1,0C44.8,83.6,44.8,83.6,44.8,83.7z"/>
	<path class="st3" d="M28.9,86.7c-0.2,0.1-0.3,0.3-0.5,0.4c0,0.3,0,0.6-0.1,0.9c0.5-0.3,1-0.6,1.5-0.9c-0.1-0.2-0.3-0.4-0.4-0.6
		C29.3,86.5,29.1,86.6,28.9,86.7z"/>
	<path class="st2" d="M14,45.7c0.1-0.7,0.2-1.3,0.3-2C13.7,44.2,13.6,45,14,45.7z"/>
	<path class="st5" d="M38.1,95.3C38.1,95.3,38.1,95.3,38.1,95.3C38.1,95.3,38.1,95.3,38.1,95.3L38.1,95.3z"/>
	<path class="st5" d="M40.3,95.5c-0.7-0.1-1.5-0.1-2.2-0.2c0.5,0.2,0.9,0.4,1.4,0.5c0.3,0.1,0.7,0.1,1,0.1l0-0.1
		C40.4,95.7,40.4,95.6,40.3,95.5z"/>
	<path class="st44" d="M38.3,80.1c0.7-0.1,1.5-0.2,2.2-0.4c-0.9-0.2-1.7-0.3-2.6-0.5C38,79.5,38.2,79.8,38.3,80.1z"/>
	<path class="st5" d="M44,80.3c0.4,0,0.8-0.3,1.3-0.4c-1,0.1-2,0.1-2.9,0.2C42.9,80.2,43.5,80.3,44,80.3z"/>
	<path class="st45" d="M29.3,72.9c0.3,0.2,0.6,0.4,0.9,0.5c0.4-0.2,0.9-0.4,1.6-0.7c-0.9,0-1.5,0-2.2,0
		C29.5,72.8,29.4,72.9,29.3,72.9z"/>
	<path class="st2" d="M1.1,71c0.4,0,0.8,0.1,1.2,0.1C2,70.7,1.8,70.3,1.5,70C1.4,70.3,1.3,70.6,1.1,71z"/>
	<path class="st29" d="M36.8,79.2c0.2-0.5,0.7-0.9,0.2-1.5C36.6,78.1,36,78.6,36.8,79.2z"/>
	<path class="st3" d="M34.8,76.5c0.6,0,1.2,0,1.8,0c0-0.1,0-0.1,0-0.2c-0.6,0-1.2,0-1.8,0C34.8,76.3,34.8,76.4,34.8,76.5z"/>
	<path class="st2" d="M26.9,4.7c0-0.6,0-1.2,0-1.8c-0.1-0.4-0.1-0.9-0.2-1.3C26.6,2.7,26,3.8,26.9,4.7z"/>
	<path class="st2" d="M15.3,32.5c0.1,0.2,0.1,0.5,0.2,0.7C15.4,33,15.4,32.7,15.3,32.5z"/>
	<path class="st25" d="M27.1,97.9c-0.5,0.4-1,0.8-1.5,1.2c-0.1,0.3-0.1,0.6-0.2,1c0.1,0.1,0.2,0.1,0.4,0.2c0.3-0.2,0.5-0.6,0.8-0.6
		c0.8,0,1.1-0.5,1-1.2C27.4,98.3,27.3,98.1,27.1,97.9z"/>
	<path class="st8" d="M26.6,99.7c-0.3,0-0.5,0.4-0.8,0.6c0.2,0.2,0.5,0.4,0.7,0.6c0-0.1,0-0.1,0-0.2c0.2-0.1,0.4-0.3,0.5-0.2
		c0.5,0.1,0.5-0.2,0.6-0.5c0.2-0.2,0.5-0.5,0.7-0.7c-0.2-0.2-0.5-0.5-0.7-0.8C27.7,99.2,27.4,99.6,26.6,99.7z"/>
	<path class="st20" d="M30.8,96.6c-0.7-0.4-1.3-0.8-1.9-1.2c0-0.1,0-0.2,0.1-0.4c0.5-0.1,1-0.1,1.5-0.2c0.8-0.4,0.4-1.2,0.5-1.8
		c-0.2-0.2-0.3-0.5-0.5-0.7c-1.1,0.7-2.2,0.5-3.3,0.1c-0.1,0.1-0.1,0.1-0.2,0.2c0.1,0.2,0.1,0.5,0.2,0.7c1,0,2,0,2.9,0
		c0.2,0,0.4,0.1,0.7,0.2c-0.8,0.9-2.2,0.5-2.6,1.7c0.6,1,0.4,2-0.5,2.2c-0.1,0.1-0.2,0.3-0.4,0.4c1.2-0.2,2.4-0.4,3.4-0.6
		c-0.5,0.3-0.4,0.7,0.1,1.1c0.7-0.4,1.3-0.9,2-1.3c0-0.5,0-1,0-1.5c-0.1,0.2-0.2,0.4-0.3,0.6C31.8,95.7,31.2,95.6,30.8,96.6z"/>
	<path class="st28" d="M40.1,96.5c0.1-0.2,0.3-0.4,0.4-0.6c-0.3,0-0.7,0-1-0.1c-0.5-0.1-0.9-0.3-1.4-0.5c-0.1,0.1-0.2,0.1-0.3,0.2
		c-0.3,0.2-0.5,0.5-0.8,0.7c0.6,0.7,1.2,1.5,1.8,2.2c0.4-0.2,0.8-0.5,1.3-0.7C40.1,97.3,39.3,96.9,40.1,96.5z"/>
	<path class="st25" d="M30.7,97.1c-1.1,0.2-2.2,0.4-3.4,0.6c-0.1,0.1-0.1,0.1-0.2,0.2c0.2,0.2,0.4,0.4,0.5,0.5
		c0.2,0.3,0.5,0.5,0.7,0.7c0.8-0.3,1.6-0.6,2.4-0.9C30.3,97.8,30.2,97.4,30.7,97.1z"/>
	<path class="st46" d="M33.9,95.7c1,0.2,2,0.4,3.1,0.5c0.3-0.2,0.5-0.5,0.8-0.7c-1.4,0-2.7,0-4.1,0C33.8,95.6,33.8,95.6,33.9,95.7z"
		/>
	<path class="st47" d="M38.8,98.5c0.2,0.4,0.3,0.8,0.5,1.2c0.9,0,1.2-0.7,0.7-1.9C39.7,98,39.2,98.2,38.8,98.5z"/>
	<path class="st48" d="M33.1,95.5c-0.1,0-0.2,0-0.4,0c0,0.5,0,1,0,1.5c0.8,0,1-0.6,1.2-1.3c-0.1-0.1-0.2-0.1-0.2-0.2
		C33.5,95.5,33.3,95.5,33.1,95.5z"/>
	<path class="st49" d="M27,100.4c-0.1,0-0.3,0.2-0.5,0.2c0.4,0.1,0.7,0.1,1.1,0.2c0.3,0,0.6,0.1,0.9,0.1c0.4,0,0.7,0,1.1,0
		c-0.7-0.4-1.4-0.7-2-1.1C27.5,100.2,27.5,100.6,27,100.4z"/>
	<path class="st5" d="M49.1,97.3c1.9,0,3.8,0,5.7,0C52.9,97.3,51,97.3,49.1,97.3z"/>
	<path class="st5" d="M39.8,36.2C39.8,36.2,39.8,36.2,39.8,36.2C39.8,36.2,39.8,36.2,39.8,36.2L39.8,36.2z"/>
	<path class="st5" d="M39.6,37.1c0-0.3,0.1-0.6,0.1-1c-0.2-0.4-0.4-0.8-0.5-1.3c-0.2-1.3-0.4-2.5-0.6-3.8c-0.1-0.5,0-1,0-1.5
		c-0.1-0.8-0.2-1.5-0.2-2.3c0-0.1,0.1-0.3,0.3-0.4c0.7-0.5,0.4-0.9-0.1-1.4c-0.3-0.2-0.4-0.5-0.7-0.8c-0.1-0.2-0.2-0.5-0.4-0.7
		c-0.2-0.1-0.3-0.2-0.5-0.3c-0.1,0.2-0.2,0.4-0.3,0.5c0,0.2,0,0.4,0,0.6c0.2,0.1,0.5,0.3,0.5,0.4c0,2.4,0,4.8,0,7.3
		c0,0.1-0.1,0.1-0.1,0.2c0.1,0.9,0.1,1.7,0.2,2.6c0.1,1.5,0.1,3.1,0.2,4.6c0.1,0.9,0.1,1.8,0.2,2.7c0.1,1.8,0.1,3.7,0.2,5.5
		c0,0.3,0,0.6,0,0.9c0.1,0.6,0.1,1.1,0.2,1.7c0.2,2.4,0.3,4.8,0.5,7.2c0.2,1.4,0.4,2.7,0.5,4.1c0.3,0,0.7,0,1,0c0-0.1,0-0.4-0.1-0.4
		c-1.3-1-0.7-2.4-1.3-3.9c1,0.9,1.7,1.7,2.5,2.4c0-0.2,0-0.3,0-0.5c-0.3-2-0.6-3.9-0.8-5.9c0,0,0.1,0,0.1-0.1
		c0.1,0.2,0.2,0.4,0.3,0.6c0.1-0.4,0.1-0.7,0.2-1.1c-0.2-0.5-0.5-1-0.5-1.5c-0.1-1.1,0-2.2,0.2-3.3c0.2,1.6,0.5,3.2,0.7,4.8
		c0.1-0.1,0.1-0.3,0.2-0.4c-0.3-3.1-0.6-6.2-1-9.3C40.3,41.1,39.9,39.1,39.6,37.1z"/>
	<path class="st50" d="M59.5,59.4c-0.4-0.6-0.9-1.3-1.3-1.9c-0.5-0.1-1-0.2-1.5-0.4c-0.5-0.3-0.7-0.2-1,0.2
		c-0.2,0.1-0.5,0.2-0.7,0.4c0,0.2,0,0.5,0.1,0.7c-0.4,0.7-0.6,1.3,0,1.9c0.6,0.7,0.4,1.3,0,2c-0.1,0.1,0,0.3,0,0.4
		c0.9,0,1.7-0.1,2.4-0.8c0.5-0.5,1.2-0.7,1.7-1.2c0.4-0.4,0.7-1,1-1.5c0-0.2,0-0.4,0-0.6l-0.1,0C59.9,58.8,59.7,59.1,59.5,59.4z"/>
	<path class="st5" d="M61.1,60.1c0.1-0.8-0.4-0.9-1-0.9c-0.3,0.5-0.6,1.1-1,1.5c-0.5,0.5-1.3,0.7-1.7,1.2c-0.7,0.7-1.5,0.8-2.4,0.8
		c0,0.1,0,0.1,0,0.2c-0.2,0.3-0.4,0.5-0.6,0.8c-0.6,0.6-1.1,1.3-1.7,1.9c-0.7,0.7-1.5,1.3-2.2,1.9c0.3-0.1,0.6-0.1,0.9-0.2
		c0.3-0.1,0.5-0.4,0.8-0.6c0.7-0.5,1.4-0.9,2-1.4c0.5-0.4,1.1-0.9,1.6-1.3c0.1-0.1,0.2-0.1,0.3-0.2c1.2-0.8,2.4-1.7,3.6-2.5
		c0.4-0.2,0.7-0.4,1.1-0.6c0.2-0.1,0.4-0.3,0.6-0.4C61.3,60.2,61.1,60.1,61.1,60.1z"/>
	<path class="st51" d="M61.4,60.2c-0.2,0.1-0.4,0.3-0.6,0.4c-0.3,0.2-0.7,0.4-1.1,0.6c-0.8,0.6-1.5,1.3-2.3,1.9
		c-0.4,0.3-0.6,1-1.3,0.5c-0.1,0.1-0.2,0.1-0.3,0.2c0.4,0.2,0.9,0.4,1.3,0.6c0.8-0.5,1.7-1,2.5-1.5c0.7-0.4,1.3-0.9,1.9-1.4
		c0.1-0.1,0.3-0.2,0.4-0.4c0.2-0.3,0.6-0.7,0.5-0.8C62.3,59.8,61.8,59.9,61.4,60.2z"/>
	<path class="st52" d="M41.3,46.3c-0.1-0.9-0.1-1.7-0.2-2.6c0-0.3,0-0.6,0-0.9c-0.2-1.3-0.4-2.6-0.5-3.8c-0.1-0.4-0.1-0.9-0.2-1.3
		c-0.2-0.5-0.4-1-0.6-1.5c0,0.3-0.2,0.7-0.1,1c0.3,2,0.7,4,0.9,6c0.4,3.1,0.7,6.2,1,9.3c0.1,0,0.3,0,0.4,0c0-0.4,0.2-0.7,0.1-1.1
		C41.8,49.7,41.6,48,41.3,46.3z"/>
	<path class="st5" d="M57.4,56.6c-1.2-0.2-2.1-1.2-2.2-2.3c0.5,0.4,1,0.8,1.5,1.2c0.1-0.1,0.2-0.2,0.3-0.3c-0.1-0.3-0.2-0.6-0.4-0.9
		c-0.2-0.3-0.4-0.6-0.6-0.9c-0.4-0.6-1.3-1.1-1.7-0.7c-0.6,0.5-0.1,1,0.1,1.5c0.6,1,1.3,1.9,1.2,3.1c0.3-0.4,0.5-0.5,1-0.2
		c0.4,0.2,1,0.3,1.5,0.4c-0.1-0.2-0.2-0.4-0.3-0.5C57.7,56.8,57.5,56.7,57.4,56.6z"/>
	<path class="st5" d="M51.6,47.9c0.1,0.7,0.1,1.3,0.4,1.8c0.2,0.5,0.7,0.8,1.1,1.2c0.1,0.4,0.2,0.9,0.4,1.3c0.1,0.2,0.1,0.3,0.2,0.5
		c1.1-1.1,0.4-2,0.1-2.8C53.4,49,53,48.1,51.6,47.9z"/>
	<path class="st53" d="M44.8,61.5c-0.3-0.1-0.6-0.4-0.8-0.5c-0.1-0.1-0.1-0.1-0.2-0.2c-0.2,0.1-0.5,0.3-0.7,0.3
		c-0.4,0-0.7-0.2-1.1-0.3c-0.1,0.4-0.1,0.7-0.2,1.1c0.5,0.9,1.7,0.4,2.2,1.1c0,0.1,0.3,0.1,0.3,0c0.4-0.7,1.3-0.6,1.9-0.9
		c-0.1-0.1-0.1-0.1-0.2-0.2C45.6,61.8,45.2,61.7,44.8,61.5z"/>
	<path class="st54" d="M55.1,58.3c-0.2,0.1-0.5,0.3-0.7,0.4c-0.2-0.2-0.4-0.3-0.6-0.5c0,0.3,0,0.6,0,0.9c0.1,0.8,0.1,1.7,0.2,2.5
		c0.1,0.6,0.3,1.2,1.1,1.2c0-0.1,0-0.1,0-0.2c0-0.1,0-0.3,0-0.4c0.5-0.7,0.7-1.3,0-2C54.5,59.6,54.7,59,55.1,58.3z"/>
	<path class="st9" d="M42.5,57.9c-0.2,0.4-0.3,0.8-0.5,1.2c0,0.5,0,1.1,0,1.6c0.4,0.1,0.7,0.3,1.1,0.3c0.2,0,0.5-0.2,0.7-0.3
		c0-0.2,0-0.4,0-0.6c-0.1-0.3-0.3-0.6-0.4-0.9C43.1,58.9,42.8,58.4,42.5,57.9z"/>
	<path class="st55" d="M53.9,61.6c-0.1-0.8-0.1-1.7-0.2-2.5c-0.2,0.4-0.5,0.8-0.7,1.3c0,0.1,0.2,0.4,0.1,0.4
		c-0.4,0.4-0.8,0.7-1.2,1.1c-0.1,0.2-0.1,0.3-0.2,0.5c1.7-0.3,1.9-0.2,2.6,1c0.1,0.1,0.1,0.1,0.2,0.2c0.2-0.3,0.4-0.5,0.6-0.8
		C54.2,62.8,54,62.3,53.9,61.6z"/>
	<path class="st56" d="M42.5,53.2c-0.2-0.2-0.3-0.5-0.5-0.7c-0.1,0-0.3,0-0.4,0c-0.1,0.1-0.1,0.3-0.2,0.4c-0.1,0-0.2,0-0.4,0
		c-0.1,0.4-0.1,0.7-0.2,1.1c0.1,0.5,0.2,1.1,0.3,1.5c0.5,0,1,0,1.4,0c-0.2-0.6-0.4-1.3-0.5-1.9C42.1,53.5,42.4,53.3,42.5,53.2z"/>
	<path class="st5" d="M54.3,65.4c-0.1,0.3-0.3,0.6-0.4,0.9c0.1,0.5,0.2,1,0.3,1.5c0,0,0.1,0,0.1,0c0.3-0.3,0.7-0.7,1-1
		c0.6-0.5,0.8-1.3,0.5-1.8C55.3,65.4,54.9,65.7,54.3,65.4z"/>
	<path class="st57" d="M38.7,29.5c0,0.5,0,1,0,1.5c0.2,1.3,0.3,2.6,0.6,3.8c0.1,0.4,0.3,0.9,0.5,1.3c0-0.7,0-1.5,0-2.2
		C39.4,32.5,39,31,38.7,29.5z"/>
	<path class="st58" d="M47.3,61.7c-0.4,0.1-0.9,0.1-1.3,0.2c0.1,0.1,0.1,0.1,0.2,0.2c0.4,0.2,0.9,0.5,1.3,0.7
		c0.4-0.1,0.8-0.1,1.3-0.2c0.2-0.2,0.4-0.4,0.5-0.6c-0.1-0.2-0.2-0.3-0.3-0.5C48.4,61.6,47.8,61.6,47.3,61.7z"/>
	<path class="st59" d="M54.3,65.2c0,0.1,0,0.1,0,0.2c0.6,0.3,1,0,1.5-0.3c0.5-0.2,1-0.4,1.5-0.6c-0.4-0.2-0.9-0.4-1.3-0.6
		C55.3,64.3,54.8,64.7,54.3,65.2z"/>
	<path class="st54" d="M36.4,21.1c-0.2,0.1-0.3,0.1-0.5,0.2c0,0.3,0,0.6-0.1,0.9c0.1,0.7,0.1,1.3,0.2,2c0.1,0.1,0.1,0.2,0.2,0.3
		c0.2,0,0.4,0,0.6,0.1c0-0.2,0-0.4,0-0.6C36.7,23.1,36.5,22.1,36.4,21.1z"/>
	<path class="st43" d="M51,70.1c0,0.1,0.1,0.1,0.1,0.2c0.7-0.4,1.4-0.7,2.1-1.1c0.3-0.5,0.6-0.9,0.9-1.4c0,0-0.1,0-0.1,0
		C53.1,68.6,52.1,69.3,51,70.1z"/>
	<path class="st32" d="M36.4,5.4c-0.1,0-0.2,0-0.3,0c0.1,0.9,0.2,1.8,0.1,2.7c0,0.5-0.3,0.9-0.5,1.4c0,0.2,0,0.5,0,0.7
		c0.2-0.4,0.6-0.7,0.7-1.1c0.1-0.8,0-1.7,0-2.6C36.4,6.2,36.4,5.8,36.4,5.4z"/>
	<path class="st50" d="M37.6,23.9c0.1,0.2,0.2,0.5,0.4,0.7c0.5-0.1,1-0.1,1.4-0.2c0.3-0.1,0.7-0.2,1-0.3c0-0.1-0.1-0.2-0.1-0.4
		C39.3,23.7,38.5,23.8,37.6,23.9z"/>
	<path class="st60" d="M48.9,61.5c0.1,0.2,0.2,0.3,0.3,0.5c-0.2,0.2-0.4,0.4-0.5,0.6c0.2,0,0.4,0.1,0.5,0.1c0.2,0,0.4-0.1,0.6-0.1
		c0.4-0.4,0.7-0.9,1.1-1.3c-0.2,0-0.4,0-0.6-0.1C49.9,61.4,49.4,61.4,48.9,61.5z"/>
	<path class="st5" d="M53.5,57.8c0.1-0.1,0.2-0.2,0.4-0.4c-0.7-0.7-1.5-1.4-2.2-2C52,56.6,52.6,57.3,53.5,57.8z"/>
	<path class="st50" d="M53.9,57.5c-0.1,0.1-0.2,0.2-0.4,0.4c0.1,0.1,0.1,0.2,0.2,0.4c0.2,0.2,0.4,0.3,0.6,0.5
		c0.3-0.1,0.5-0.3,0.7-0.4c0-0.2,0-0.5-0.1-0.7C54.6,57.6,54.3,57.5,53.9,57.5z"/>
	<path class="st61" d="M42.7,53.2c-0.1,0-0.1,0-0.2,0c-0.1,0.1-0.4,0.2-0.4,0.3c0.1,0.6,0.3,1.3,0.5,1.9c0.1,0.3-0.3,0.9,0.4,0.9
		c-0.1-0.8-0.2-1.6-0.3-2.3C42.7,53.8,42.7,53.5,42.7,53.2z"/>
	<path class="st31" d="M57.4,56.6c0.2,0.1,0.3,0.2,0.5,0.4c0.3-0.1,0.5-0.1,0.8-0.2c0,0,0.1,0,0.1,0c-0.3-0.3-0.7-0.6-1-0.9
		C57.6,56.1,57.5,56.3,57.4,56.6z"/>
	<path class="st60" d="M52.4,60.8c-0.4,0.2-0.9,0.4-1.3,0.6c0.2,0.2,0.5,0.4,0.7,0.5c0.4-0.4,0.8-0.7,1.2-1.1
		c0.1-0.1-0.1-0.3-0.1-0.4C52.8,60.5,52.6,60.7,52.4,60.8z"/>
	<path class="st62" d="M43.6,53.1c-0.3,0-0.6,0.1-0.9,0.2c0,0.3,0,0.5,0,0.8c0.4-0.1,0.7-0.2,1.1-0.3C43.7,53.5,43.7,53.1,43.6,53.1
		z"/>
	<path class="st5" d="M36.1,14.3c0,0,0,0.1,0,0.1c0.2,0.3,0.4,0.5,0.6,0.8c0.1,0,0.2-0.1,0.3-0.1c-0.1-0.5-0.2-0.9-0.3-1.5
		C36.4,14,36.2,14.2,36.1,14.3z"/>
	<path class="st63" d="M37.9,50c-0.1,0-0.1,0-0.2,0c-0.1-0.8-0.1-1.6-0.2-2.6c0.2,0.3,0.3,0.4,0.4,0.5c-0.1-1.8-0.1-3.7-0.2-5.5
		c0-0.9-0.1-1.8-0.2-2.7c0,0.9,0,1.8,0,2.8c-0.1,0-0.1,0-0.2,0.1c-0.2-0.2-0.3-0.4-0.5-0.6c-0.2,3.4,0,6.7,0.5,10.1
		c0.1,0.2,0.3,0.4,0.5,0.7c0.1-0.8,0.2-1.5,0.3-2.2c-0.1-0.6-0.1-1.1-0.2-1.7C37.9,49.2,37.9,49.6,37.9,50z"/>
	<path class="st26" d="M35.5,62.4c-0.4,0-0.8-0.1-1.2-0.1c-0.5,0-1.1,0-1.6,0c-0.6,0.1-1.2,0.1-1.9,0.2c-0.1,0-0.1,0-0.2,0
		c-0.1,0.4-0.1,0.9-0.2,1.3c0.9,0.2,1.7,0.4,2.6,0.5c0.5,0.1,1,0.1,1.5,0.2c0.1-0.5,0.2-0.9,0.3-1.4c-0.1,0-0.2-0.1-0.3-0.1
		c0.3-0.1,0.7-0.2,1-0.4C35.5,62.5,35.5,62.4,35.5,62.4z"/>
	<path class="st24" d="M28.8,41.5c-0.1,0.4-0.3,0.8-0.4,1.2c-0.2,0.7-0.3,1.4-0.4,2.1c-0.3,0.3-0.6,0.6-0.9,0.9
		c0.1,0.4,0.2,0.8,0.3,1.3c0.1,0.7,0.2,1.4,0.2,2c0.4,0.4,1.1,0.3,1.3,0.9c0.1-0.2,0.2-0.4,0.2-0.7c-0.1-1.4-0.2-2.8-0.3-4.1
		C28.7,43.9,28.8,42.7,28.8,41.5z"/>
	<path class="st64" d="M32.2,56.9c-0.3,0.2-0.5,0.4-0.8,0.6c0,0.4,0.1,0.9,0.1,1.4c0,0-0.1,0-0.1,0c-0.1-0.3-0.1-0.5-0.2-0.8
		c-0.1,0-0.2,0-0.3,0c-0.1,1.4-0.1,2.8-0.2,4.3c0.6-0.1,1.2-0.1,1.9-0.2c0.1-0.8-0.3-1.5-1.1-1.8c0.2-0.8,0.3-1.6,0.5-2.6
		c0.2,0.3,0.3,0.4,0.4,0.6c0.1-0.3,0.2-0.6,0.3-0.8c0-0.6,0.3-0.8,0.8-0.9C33.1,56.8,32.7,56.9,32.2,56.9L32.2,56.9z"/>
	<path class="st65" d="M28.2,39.1c-0.1,0.1-0.4,0-0.6,0c-0.2,0.4-0.4,0.8-0.6,1.3c-0.1,0.2-0.1,0.5,0,0.7c0.1,0.5,0.3,1,0.5,1.5
		c0.1,0.1,0.1,0.1,0.2,0.2c0.1,0.7,0.2,1.3,0.4,2c0.1-0.7,0.2-1.4,0.4-2.1c0.1-0.4,0.3-0.8,0.4-1.2c0-1,0.1-2.1,0.1-3.1
		c-0.2,0-0.3-0.1-0.5-0.1C28.3,38.6,28.3,38.9,28.2,39.1z"/>
	<path class="st66" d="M34.9,28.9c-0.4,3.1-0.9,6.2-1.3,9.3c0.1,0.1,0.2,0.1,0.3,0.2c0.1-0.2,0.1-0.3,0.2-0.5
		c0.4-3.2,0.9-6.5,1.3-9.7c0.1-0.6,0.1-1.2,0.1-1.8c-0.1,0-0.2,0-0.3,0C35.1,27.2,35,28,34.9,28.9z"/>
	<path class="st41" d="M36.8,24.6c-0.2,0-0.4,0-0.6-0.1c-0.1,0.1-0.1,0.2-0.2,0.4c0.1,1,0.2,2,0.3,2.9c0.1,0.2,0.3,0.4,0.3,0.6
		c0,1.4,0,2.7,0,4.2c0.1,0,0.3-0.1,0.5-0.1c0-0.1,0.1-0.1,0.1-0.2c0-2.4,0-4.8,0-7.3C37.3,24.9,37,24.8,36.8,24.6z"/>
	<path class="st67" d="M36.7,32.6c0-1.4,0-2.8,0-4.2c0-0.2-0.2-0.4-0.3-0.6c0,0.3-0.1,0.6-0.1,0.9c0,1.4,0.1,2.7,0.2,4.1
		c0.1,1.7,0.2,3.3,0.2,5c0.2-0.4,0.4-0.7,0.5-1.1c0.1-0.6,0.1-1.1,0.2-1.7c-0.1-0.9-0.1-1.7-0.2-2.6C37,32.5,36.9,32.6,36.7,32.6z"
		/>
	<path class="st46" d="M37.2,62.2c0-0.1,0-0.2,0-0.3c-1,0.1-2,0.3-2.9,0.4c0.4,0,0.8,0.1,1.2,0.1c0,0.1,0,0.1,0,0.2
		c-0.3,0.1-0.7,0.2-1,0.4c0.1,0,0.2,0.1,0.3,0.1c-0.1,0.5-0.2,0.9-0.3,1.4c0.6,0.1,1.2,0.1,1.9,0.2c0.5-0.3,0.7-0.5,0.3-1.1
		C36.4,63,36.4,62.4,37.2,62.2z"/>
	<path class="st18" d="M38.4,57.3c-0.1,0-0.1,0-0.2,0c0,0.3,0,0.6-0.1,0.9c-0.1,0.3-0.2,0.6-0.3,0.9c-0.1,0.4,0.6,0.9-0.2,1.1
		c0,0.5,0,1.1,0,1.6c0.4,0.3,0.8,0.6,1.3,0.9c0.1,0,0.1-0.1,0.2-0.1c0.1-0.3,0.1-0.6,0.2-0.9c-0.2-1.4-0.4-2.7-0.5-4.1
		C38.5,57.5,38.5,57.4,38.4,57.3z"/>
	<path class="st61" d="M37.8,52.7c-0.2-0.3-0.3-0.5-0.5-0.7c0,0.7-0.1,1.5-0.1,2.2c0.1,0.1,0.2,0.1,0.3,0.2c0.1-0.1,0.2-0.1,0.3-0.3
		c0.1,0.7,0.3,1.3,0.4,1.9c0,0.1-0.2,0.2-0.2,0.3c-0.1-0.1-0.2-0.2-0.3-0.3c0,1,0,2,0,3.1c0.1-0.3,0.3-0.6,0.3-0.9
		c0.1-0.3,0.1-0.6,0.1-0.9c0.1,0,0.1,0,0.2,0c0.1,0.1,0.2,0.2,0.2,0.4c-0.2-2.4-0.3-4.8-0.5-7.2C38,51.2,37.9,51.9,37.8,52.7z"/>
	<path class="st68" d="M28.9,53.6c-0.4,0.5-0.9,0.8-1.5,0.2c-0.2,0.4-0.3,0.8-0.5,1.3c0.2,0.1,0.5,0.1,0.9,0.2
		c0.1,0.9-0.3,2.2,0.9,2.9c0-0.6,0-1.3,0.1-1.9c0-0.2,0.2-0.3,0.3-0.5C29,55.1,29,54.3,28.9,53.6L28.9,53.6z"/>
	<path class="st69" d="M27.6,49c-0.1,0-0.1,0-0.2,0c-0.1,0.7-0.2,1.3-0.3,2c0.4,0.2,0.7,0.4,1.1,0.6c-0.7,0.9,0.3,1.1,0.7,1.6
		c0.1-0.3,0.2-0.5,0.2-0.8c-0.1-0.9-0.2-1.7-0.3-2.5C28.7,49.3,28,49.4,27.6,49z"/>
	<path class="st48" d="M37.2,36.8c-0.1,0.4-0.3,0.7-0.5,1.1c0.1,1.3,0.1,2.7,0.2,4c0.2,0.2,0.3,0.4,0.5,0.6c0.1,0,0.1,0,0.2-0.1
		c0-0.9,0-1.8,0-2.8c-0.1-1.5-0.1-3.1-0.2-4.6C37.3,35.6,37.3,36.2,37.2,36.8z"/>
	<path class="st70" d="M37.5,61.9c-0.1,0-0.2,0-0.4,0c0,0.1,0,0.2,0,0.3c0.1,0.4,0.1,0.8,0.2,1.1c0.2,0.4,0.4,0.7,0.7,1.1
		c0.8-0.3,0.9-0.9,0.8-1.7C38.4,62.5,38,62.2,37.5,61.9z"/>
	<path class="st12" d="M28.3,32.8c0.5,1.8,0.2,3.7,0.1,5.5c0.2,0,0.3,0.1,0.5,0.1c0-2.1,0.6-4.1-0.4-6.1
		C28.5,32.5,28.4,32.6,28.3,32.8z"/>
	<path class="st68" d="M28.3,51.6c-0.4-0.2-0.8-0.4-1.1-0.6c-0.1,0.5-0.2,1-0.3,1.5c0.4,0.3,0.8,0.6,1.2,1c0.1-0.1,0.4-0.6,0.8,0.1
		l0,0c0-0.1,0.1-0.2,0.1-0.4C28.7,52.8,27.6,52.6,28.3,51.6z"/>
	<path class="st6" d="M37.8,59.1c0-1,0-2,0-3.1c-0.1-0.6-0.1-1.1-0.2-1.7c-0.1-0.1-0.2-0.1-0.3-0.2c0.1,2,0.2,4,0.3,6
		C38.4,60,37.6,59.5,37.8,59.1z"/>
	<path class="st6" d="M28.8,56.3c-0.1,0.6-0.1,1.3-0.1,1.9c0,0.2,0,0.4,0,0.6c0.1,0.9,0.2,1.8,0.2,2.7c0,0,0.1,0,0.1,0
		c0-1.9,0-3.8,0-5.7C29,56,28.8,56.1,28.8,56.3z"/>
	<path class="st67" d="M28.9,61.5c-0.3-0.3-0.6-0.5-0.9-0.8c-0.1,0.4-0.1,0.7-0.2,1c0.4,0.3,0.7,0.5,1.1,0.9c0,0.1-0.1,0.4-0.1,0.6
		c0.1,0.1,0.2,0.2,0.3,0.2c0.3-0.3,0.5-0.7,0.8-1c-0.3-0.3-0.5-0.6-0.8-0.9C29,61.5,29,61.5,28.9,61.5z"/>
	<path class="st71" d="M29.1,63.4c0.2,0.2,0.3,0.3,0.5,0.5c0.2,0,0.5-0.1,0.7-0.1c0.1-0.4,0.1-0.9,0.2-1.3c-0.2,0-0.5,0-0.7,0
		C29.6,62.7,29.4,63.1,29.1,63.4z"/>
	<path class="st14" d="M33.5,56.8c-0.5,0.1-0.8,0.3-0.8,0.9c0.8-0.2,1.5-0.3,2.3-0.5c0-0.1,0-0.3,0-0.4C34.5,56.8,34,56.8,33.5,56.8
		z"/>
	<path class="st67" d="M27.9,29.7c0,0.4-0.1,0.7-0.1,1.1c0.1,0.3,0.2,0.7,0.3,1c0.1,0.3,0.2,0.7,0.3,1c0.1-0.2,0.1-0.4,0.2-0.6
		c0-0.5,0-1.1,0-1.6c-0.1-0.3-0.3-0.6-0.4-0.9C28.1,29.7,28,29.7,27.9,29.7z"/>
	<path class="st72" d="M32.6,52.7c-0.2,1.2-0.4,2.5-0.6,3.7c0,0.2,0.1,0.3,0.2,0.5c0.2-1.4,0.4-2.8,0.6-4.2
		C32.7,52.7,32.6,52.7,32.6,52.7z"/>
	<polygon class="st72" points="32.2,56.9 32.2,56.9 32.2,56.9 	"/>
	<path class="st26" d="M32.9,43.9c0.1,0,0.2,0,0.3,0c0.1-0.8,0.2-1.6,0.3-2.5c-0.1-0.4-0.1-0.9-0.2-1.3C33.2,41.4,33,42.7,32.9,43.9
		z"/>
	<path class="st73" d="M29.6,34c0.1,1,0.3,2,0.4,3c0.1,0,0.2,0,0.3,0c-0.1-1-0.2-2-0.4-3C29.8,34,29.7,34,29.6,34z"/>
	<path class="st74" d="M33.3,40.2c0.1,0.4,0.1,0.9,0.2,1.3c0.1-1,0.3-2.1,0.4-3.1c-0.1-0.1-0.2-0.1-0.3-0.2
		C33.5,38.9,33.4,39.5,33.3,40.2z"/>
	<path class="st26" d="M27.6,31.4c-0.1-0.2-0.4-0.3-0.4-0.5c-0.1-0.5-0.2-1-0.3-1.5c-0.5,0.2-0.9,0.4-1.6,0.7
		c0.3,0.7,0.6,1.4,0.9,2.1c-0.3,0.1-0.7,0.3-1,0.4c0.5,0.4,0.8,0.7,1.2,1.1c-0.1,0.1-0.2,0.3-0.2,0.4c-0.7-0.3-1.5-0.6-2.4-1
		c0.3,1-0.9,1.8-0.1,2.8c0.1,0.1,0,0.5-0.1,0.6c-0.6,0.7-0.9,1.5-0.8,2.4c0.1,0.8,0.1,1.7-0.8,2.2c-0.1,0.1-0.3,0.5-0.2,0.5
		c0.5,0.6,0,1.1-0.2,1.6c-0.1,0.2,0,0.4,0,0.6c0.4-0.1,0.7-0.2,1.2-0.4c-0.7,0.9-0.7,1.4,0.1,2c-0.3,0.5-0.6,1-1,1.5
		c-0.1,0.5-0.1,1-0.2,1.5c-0.6,0-0.7,0.5-0.8,1.1c-0.1,0.9-0.3,1.8-0.6,2.7c-0.5,1.3-0.5,1.3-0.1,2.5c-0.2-0.2-0.4-0.3-0.6-0.5
		c-0.1,0.1-0.1,0.1-0.2,0.2c-0.3,1-0.6,2-1,2.9c-0.6,1.1-1.5,1-2.2-0.1c-0.1-0.1-0.1-0.2-0.1-0.2c-0.1,0.2-0.1,0.4-0.2,0.5
		c0.2,0.3,0.3,0.8,0.5,0.9c0.5,0.1,0.6,0.4,0.8,0.8c0.4-0.1,0.7-0.3,1.1-0.4c0.1,0.1,0.1,0.2,0.2,0.3c0.1-0.4,0.2-0.8,0.4-1.3
		c0.1,0.6,0.1,1,0.2,1.4c0.1,0,0.2,0,0.3,0c0.1-0.6,0.3-1.1,0.3-1.6c0.6-0.1,1.2-0.1,1.9-0.2c0.2,0.7,0.5,1.7,0.8,2.8
		c0.2-0.3,0.3-0.6,0.5-0.8c0.5,0.8,1,1.6,1.4,2.4c0.4-0.3,0.9-0.7,1.4-1.1c-0.2-0.1-0.4-0.2-0.4-0.3c0.5-0.6,0.9-1.2,1.3-1.8
		c0-0.5-0.1-1-0.1-1.5c-0.6-0.9-0.3-1.7,0.3-2.5c0.2-0.2,0.3-0.5,0.5-0.8c0-0.5,0-1,0-1.5c0.1-0.5,0.2-1,0.3-1.5
		c0.1-0.7,0.2-1.3,0.3-2c-0.1-0.4-0.2-0.8-0.3-1.2c0-0.1,0-0.3,0-0.4c-0.8-1.1-0.3-2.3-0.6-3.5c-0.1-0.4,0.2-1,0.3-1.5
		c0.2,0,0.4,0.1,0.7,0.1c-0.2-0.5-0.4-1-0.5-1.5c-0.1-0.2,0-0.5,0-0.7c0.2-0.4,0.4-0.9,0.6-1.3c0-0.8-0.1-1.7-0.1-2.5
		c0-0.7,0.1-1.3,0.1-2C27.6,33.5,27.6,32.4,27.6,31.4z"/>
	<path class="st7" d="M19.4,47.7c0.2,1.1-0.9,2.1,0.4,2.8c-0.3,1-1.1,1.1-1.9,1.2c-0.3,0-0.7,0.2-0.7,0.3c0,0.7,0.2,1.3,0.3,2
		c0,0.2,0.2,0.4,0.3,0.7c-0.3,0-0.5,0.2-0.8,0.1c-0.4-0.1-0.8-0.3-1.4-0.6c0.1,1,0.2,2,0.3,2.9c0,0.1,0.1,0.2,0.1,0.2
		c0.7,1.1,1.6,1.2,2.2,0.1c0.5-0.9,0.7-2,1-2.9c0,0,0.1-0.1,0.2-0.2c0.2,0.1,0.3,0.3,0.6,0.5c-0.4-1.2-0.3-1.2,0.1-2.5
		c0.3-0.9,0.5-1.8,0.6-2.7c0.1-0.6,0.1-1.1,0.8-1.1c0.1-0.6,0.1-1,0.2-1.5c-0.2,0.1-0.5,0.2-0.7,0.4C20.6,47.8,20.2,48.4,19.4,47.7z
		"/>
	<path class="st7" d="M16.2,58.5c-0.2,0-0.3-0.6-0.5-0.9c-0.2-0.2-0.5-0.5-0.7-0.5c-0.5-0.1-1.1-0.2-1.7-0.2
		c0.1,0.4,0.1,0.7,0.2,1.1c-0.2,0.1-0.4,0.3-0.6,0.5c0.8,0.9-0.1,1.2-0.5,1.7c0.4,0.9,0.9,0.1,1.3,0c0.2-0.3,0.4-0.6,0.7-1
		c0.2,0,0.6,0.1,1.1,0.2c0.1,0.3,0.2,0.6,0.4,1.1c0.1-1.3,0.7-1,1.3-0.6c-0.1-0.2-0.1-0.4-0.2-0.6C16.8,59,16.7,58.6,16.2,58.5z"/>
	<path class="st5" d="M18.6,13.7c0.2,0.4,0.4,0.8,0.7,1.1c0.1,0,0.2,0,0.3-0.1c-0.1-0.5-0.1-1.1-0.2-1.6
		C19.1,13.4,18.9,13.6,18.6,13.7z"/>
	<polygon class="st75" points="23.6,89.6 23.6,89.6 23.6,89.6 	"/>
	<path class="st75" d="M27.5,94.5c0-0.2-0.2-0.4-0.3-0.7c-0.1-0.2-0.1-0.4-0.2-0.6c-0.1-0.2-0.1-0.5-0.2-0.7
		c-0.7,0.3-0.8-0.3-0.9-0.7c-0.4,0-0.8,0-1.2-0.1c0-0.1-0.1-0.2-0.1-0.3c0.4-0.4,0.9-0.8,1.3-1.2c-0.1-0.2-0.1-0.4-0.2-0.5
		c-0.4,0.3-0.8,0.7-1.3,1.1c-0.3-0.5-0.6-0.9-0.9-1.3c-0.4,0.2-1,0.4-1,0.6c0,0.8-0.6,0.6-1,0.8c-0.2,0.1-0.5,0.1-0.7,0.1
		c0.5,0.4,0.8,0.7,1.2,1c0.4,0.1,0.7,0.1,1.1,0.2c0.1-0.1,0.2-0.2,0.3-0.3c0.2-0.1,0.4-0.2,0.7-0.2c0,0.2,0,0.5,0,0.7
		c0,0.1-0.1,0.3-0.2,0.4c0.2,0.3,0.4,0.7,0.6,1.1c0.1,0,0.4,0.1,0.7,0.1c-0.1,0.5-0.3,0.9-0.4,1.4c0.1,0,0.1,0,0.2,0
		c0.2,0.1,0.5,0.2,0.7,0.4c0.9-0.8,1.2-0.8,1.6,0.1c-0.3,0-0.6,0.1-0.8,0.1c0.3,0.4,0.7,0.7,1,1.1c0.9-0.2,1.2-1.2,0.5-2.2
		C27.7,95.2,27.4,95.2,27.5,94.5z"/>
	<path class="st63" d="M26.9,83.3c-0.1,0.1-0.3-0.1-0.5-0.1c-0.1,0-0.1,0-0.2,0c-0.3,0.3-0.6,0.5-0.9,0.8c0.3,0.1,0.7,0.1,1,0.2
		c-0.4,0.9-0.7,1.1-1.3,0.5c-0.3,0.4-0.7,0.8-1,1.3c0.7,0.1,1.3,0.1,2,0.2c0.9,0.1,1.3,0.6,1.5,1.4c0,0.2,0.1,0.3,0.2,0.5
		c0.2-0.3,0.4-0.6,0.5-0.9c-0.1-0.3-0.4-0.5-0.4-0.8c-0.1-0.5-0.2-1.1,0.6-1.1c0.5-0.2,1-0.4,1.5-0.5c0-0.3,0-0.7,0-1
		C28.8,83.8,28,82.3,26.9,83.3z"/>
	<path class="st76" d="M16.5,84.1c-1.3,0.7-2-0.4-2.9-0.9c-0.1,0.4-0.2,0.7-0.2,0.9c-0.9,0-1.8,0-2.8,0c0.2-0.9-0.2-1-0.8-0.7
		c-0.4,0.2-0.8,0.6-1.2,0.9c2,0.2,4,0.4,6,0.5c1,0.1,2.1-0.2,3,0.4c-0.3-0.7-0.5-1.3-0.8-2.1C16.6,83.6,16.5,83.9,16.5,84.1z"/>
	<path class="st28" d="M27.6,88.3c-0.4,0.7-1.2,1.4-0.2,2.2c0,0-0.1,0.2-0.1,0.3c0.6,0.4,0,0.7-0.1,1c0.8-0.4,1.2-1,0.9-1.9
		c-0.1-0.2,0.2-0.5,0.3-0.8C28.1,89,27.9,88.7,27.6,88.3z"/>
	<path class="st0" d="M24.5,90.9c0.5-0.4,0.9-0.7,1.3-1.1c-0.7-0.1-1.5-0.1-2.2-0.2C23.9,90,24.1,90.4,24.5,90.9z"/>
	<path class="st43" d="M27.3,90.9C27.2,91,27.1,91,27,91.1c-0.6-0.1-0.9,0.1-1,0.7c0.1,0.5,0.2,1,0.9,0.7c0.1-0.1,0.1-0.1,0.2-0.2
		c0-0.1,0.1-0.3,0.1-0.4C27.3,91.6,27.9,91.3,27.3,90.9z"/>
	<path class="st77" d="M24.7,91.5c0,0.1,0.1,0.2,0.1,0.3c0.4,0,0.8,0,1.2,0.1c0.1-0.6,0.4-0.8,1-0.7c-0.3-0.2-0.7-0.5-1-0.7
		C25.6,90.8,25.1,91.1,24.7,91.5z"/>
	<path class="st17" d="M28.4,87.1c-0.1,0-0.2,0-0.3,0c-0.2,0.3-0.4,0.6-0.5,0.9c0,0.1,0,0.2,0,0.4c0.2,0.3,0.5,0.6,0.7,0.9
		c0.1-0.1,0.1-0.1,0.2-0.2c-0.1-0.4-0.2-0.7-0.3-1.1C28.4,87.7,28.4,87.4,28.4,87.1z"/>
	<path class="st78" d="M32.9,94.7c0.5-0.7-0.1-1-0.5-1.2c-0.4-0.3-1-0.4-1.5-0.6c-0.1,0.7,0.3,1.5-0.5,1.8c-0.5,0.1-1,0.1-1.5,0.2
		c0,0.1,0,0.2-0.1,0.4c0.6,0.4,1.2,0.8,1.9,1.2c0.4-1,1-0.9,1.7-0.5c0.1-0.2,0.2-0.4,0.3-0.6c0.1,0,0.2,0,0.4,0
		C33.1,95.2,32.8,94.9,32.9,94.7z"/>
	<path class="st79" d="M25.4,60.8c-0.5,0.4-1,0.8-1.4,1.1c-0.4-0.7-0.9-1.5-1.4-2.4c-0.1,0.2-0.3,0.5-0.5,0.8c-0.3-1-0.6-2-0.8-2.8
		c-0.7,0.1-1.2,0.2-1.9,0.2c-0.1,0.4-0.2,1-0.3,1.6c-0.1,0-0.2,0-0.3,0c-0.1-0.4-0.1-0.8-0.2-1.4c-0.2,0.6-0.3,1-0.4,1.3
		c-0.1-0.1-0.1-0.2-0.2-0.3c-0.4,0.1-0.7,0.3-1.1,0.4c0.1,0.2,0.1,0.4,0.2,0.6c0.1,0.5,0.1,0.9,0.2,1.5c-1.4-0.7-1.4-0.7-1.5,0.5
		c1-0.3,1.8-0.2,2.4,0.7c0.1,0.2,0.5,0.3,0.8,0.3c1.3,0,2.6-0.1,3.9-0.2c0.1,0.3,0.3,0.5,0.5,0.8c-0.4,0.1-0.7,0.1-1,0.2
		c0,0,0,0.1,0,0.1c0.5,0,0.9,0.1,1.6,0.1c-0.3,0.3-0.4,0.4-0.5,0.5c0.7,0.1,1.3,0.3,2,0.4c0-0.4,0.1-0.8,0.1-1.3c-0.3,0-0.6,0-0.9,0
		c0.3-1,0.7-1.9,1-2.8C25.5,60.8,25.5,60.8,25.4,60.8z"/>
	<path class="st80" d="M19.2,66.3c-0.1,0-0.3,0.2-0.4,0.1c-0.9-0.1-1.4,0.4-1.8,1.1c0.1,0.1,0.2,0.2,0.3,0.2c0,0.1,0,0.2,0,0.3
		c-2.2,0.2-4.3,0.3-6.5,0.5c0.2,0.2,0.5,0.3,0.7,0.5c0.2,0.1,0.4,0.2,0.6,0.2c0.9,0,1.8-0.1,2.7-0.2c1.2-0.2,2.5-0.4,3.7-0.6
		c-0.1-0.6,0.2-0.9,0.7-0.8c1,0.1,1.4-0.4,1.7-1.3c-0.2,0-0.3-0.1-0.5-0.1C19.9,66.3,19.5,66.3,19.2,66.3z"/>
	<path class="st81" d="M27.6,61.3c0-0.1,0-0.3,0-0.4c-0.1,0-0.1,0-0.2,0c-0.8,0.8-0.8,0.8-1.3-0.1c-0.1-0.1-0.3-0.1-0.5-0.1
		c-0.3,0.9-0.6,1.8-1,2.8c0.3,0,0.6,0,0.9,0c0,0.5-0.1,0.9-0.1,1.3c0.1,0,0.3,0.1,0.4,0.1c0.3-0.2,0.6-0.4,0.9-0.5
		c0.5-0.2,1-0.4,1.4-0.6c0.2-0.1,0.4-0.2,0.5-0.3c-0.3,0-0.6,0-1,0C27.7,62.8,27.6,62.1,27.6,61.3z"/>
	<path class="st82" d="M22.7,66.5c-0.8-0.1-1.6-0.1-2.4-0.2c0.2,0,0.3,0.1,0.5,0.1c-0.3,0.9-0.7,1.4-1.7,1.3c-0.4,0-0.8,0.3-0.7,0.8
		c1.1-0.1,2.2-0.2,3.3-0.3c0.8,0.2,1.5-0.2,2.2-0.6c-0.2-0.1-0.3-0.2-0.5-0.2C22.8,67.4,22.6,67,22.7,66.5z"/>
	<path class="st73" d="M15.7,66.6c-0.1,0.2,0.1,0.6,0.3,0.8c0.3,0.2,0.6,0.2,1,0.2c0.4-0.7,0.8-1.3,1.8-1.1c0.1,0,0.3-0.1,0.4-0.1
		c-0.9-0.1-1.8-0.2-2.8-0.2C16.2,66.1,15.8,66.3,15.7,66.6z"/>
	<path class="st83" d="M22.7,66.5c0,0.6,0.2,0.9,0.8,0.9c0.1,0,0.3,0.1,0.5,0.2c0.1,0,0.2,0,0.4,0.1c0.4-0.1,0.7-0.3,1.1-0.4
		c0-0.3,0-0.6,0-0.8C24.5,66.4,23.6,66.4,22.7,66.5z"/>
	<path class="st5" d="M26.7,64.5c-0.3,0.2-0.6,0.4-0.9,0.5c-0.1,0.4-0.3,0.9-0.4,1.3c0,0.3,0,0.6,0,0.8c0.1,0,0.1,0,0.2,0
		c0.4-0.1,0.7-0.2,1.1-0.3c0.1-0.1,0.2-0.2,0.3-0.2c-0.2-0.5-0.3-1.1-0.5-1.6C26.6,64.8,26.7,64.6,26.7,64.5z"/>
	<path class="st36" d="M8,69c0,0.1,0,0.1,0,0.2c0.2,0.1,0.4,0.2,0.5,0.2c0.3,0,0.5,0.1,0.8,0.1c0.4-0.2,0.9-0.4,1.3-0.6
		c-0.6-0.1-1.2-0.2-1.9-0.4C8.5,68.8,8.2,68.9,8,69z"/>
	<path class="st5" d="M8.7,68.7c0.6,0.1,1.2,0.2,1.9,0.4c0.3,0,0.6,0,0.9,0c-0.2-0.2-0.5-0.3-0.7-0.5C10.1,68.6,9.4,68.6,8.7,68.7z"
		/>
	<path class="st26" d="M23.2,79.2c-0.3,0.1-0.5,0.2-0.8,0.2c-0.4,0.1-0.8,0.2-1.3,0.2c0,0.1,0,0.2,0,0.3c-0.3-0.3-0.5-0.8-0.8-1
		c-0.3-0.2-0.8-0.1-1.2-0.1c-0.1-0.1-0.3-0.3-0.6-0.6c0.3-0.5,0.3-0.5,1.9-0.7c-0.4,0.5-0.4,0.9,0.5,1.1c-0.1-1-0.3-1.9-0.4-2.9
		c0.1,0.1,0.3,0.1,0.5,0.2c0.4-0.3,0.8-0.6,1.4-0.9c-0.8,0-1.4,0-1.9,0c-1,0-2.1,0.1-3.1,0.1c-1,0.1-2.3-0.3-2.9,0.7
		c-0.6,1-1.3,1.4-2.3,1.6c0.5,0.2,0.9,0.4,1.2,0.5c-0.2,0.6-0.3,1-0.4,1.4c0,0.2,0,0.3,0,0.5c-0.1,0.3-0.2,0.5-0.3,0.9
		c0.7,0.1,1.3,0.1,2,0.2c0,0,0,0,0.1,0.1c-0.1,0-0.1,0.1-0.2,0.1c0.1,0.8,0.5,0.9,1.2,0.8c0.8-0.1,1.7-0.2,2.3,0.2
		c0.8,0.4,1.3,0.4,1.8-0.2c0.4-0.5,0.8-0.5,1.2-0.1c0.1,0.1,0.2,0.2,0.3,0.2c0.2,0.1,0.5,0.1,0.8,0.2c0,0.1,0,0.2,0,0.3
		c0.2-0.1,0.4-0.3,0.7-0.5c0,0.5,0,0.8,0,1.1c0.2,0.1,0.3,0.2,0.5,0.1c0.3-0.1,0.6-0.3,0.8-0.5c0.2-0.4,0.5-0.7,0.7-1.1
		c-0.4-0.7-0.9-1.5-1.3-2.2C23.3,79.2,23.3,79.2,23.2,79.2z M16.2,77.3c-0.4-0.2-0.8-0.4-1.2-0.5c0.1-0.1,0.1-0.3,0.2-0.4
		c0.4,0.2,0.8,0.3,1.3,0.5C16.4,77,16.3,77.2,16.2,77.3z M19.4,81.3c-0.8,0-1.7,0-2.5,0c0-0.1,0-0.1,0-0.2c0.8,0,1.7,0,2.5,0
		C19.4,81.1,19.4,81.2,19.4,81.3z"/>
	<path class="st84" d="M26.7,81.2c-0.2-0.1-0.5-0.3-0.8-0.4c-0.9-0.6-1-0.6-1.3,0.6c-0.2,0.4-0.5,0.7-0.7,1.1
		c0.3,0.2,0.6,0.4,0.9,0.5c0.4,0.1,0.9,0.1,1.3,0.2c0.1,0,0.1,0,0.2,0c0.2-0.1,0.5-0.2,0.7-0.4c-0.1-0.2-0.1-0.5-0.2-0.7
		C26.8,81.8,26.8,81.5,26.7,81.2z"/>
	<path class="st60" d="M23.1,83c-0.1,0-0.3-0.1-0.5-0.1c-0.6,0-1.2,0.1-2.1,0.2c0.7,0.7,1.3,1.3,1.8,1.9c0.2-0.4,0.4-0.7,0.5-0.9
		c0.2,0.2,0.4,0.4,0.6,0.5c0.1,0,0.3-0.3,0.4-0.5c0.3-0.3,0.6-0.7,0.9-1c-0.3-0.2-0.6-0.4-0.9-0.5C23.7,82.6,23.4,82.8,23.1,83z"/>
	<path class="st85" d="M14.6,80.8c-0.6-0.1-1.2-0.1-2-0.2c0.1-0.4,0.2-0.6,0.3-0.9c-0.2,0.3-0.5,0.6-0.7,0.9
		c0.3,0.1,0.6,0.4,0.9,0.4c0.3,0.1,0.7,0,1.1,0c0.1,0,0.1,0,0.2,0C14.5,80.9,14.5,80.9,14.6,80.8C14.6,80.9,14.6,80.8,14.6,80.8z"/>
	<path class="st24" d="M25,84.6c0.5,0.5,0.9,0.4,1.3-0.5c-0.4-0.1-0.7-0.1-1-0.2C25.2,84.2,25.1,84.4,25,84.6z"/>
	<path class="st86" d="M18.5,95.5c-0.2-0.1-0.5-0.2-0.7-0.1c-0.7,0.4-1.1,0-1.4-0.5c-0.4,0.1-0.7,0.2-1.1,0.4c0.5,0,0.8,0.2,0.7,0.7
		c0.2,0.1,0.4,0.3,0.5,0.4c0.9-0.1,1.7-0.1,2.6-0.2c0,0,0,0.3-0.1,0.5c0.1,0,0.1,0,0.2,0.1c0.5-0.5,0.9-0.9,1.7-0.7
		c0.2,0,0.5-0.5,0.7-0.7c-0.1-0.2-0.2-0.3-0.3-0.5C20.9,95.4,19.2,95.9,18.5,95.5z"/>
	<path class="st25" d="M21.7,95.3c-0.2,0.3-0.5,0.8-0.7,0.7c-0.8-0.2-1.3,0.2-1.7,0.7c0.5,0.7,1,0.1,1.5,0c0.6-0.2,1.3-0.3,1.9-0.5
		c0-0.1-0.1-0.2-0.1-0.3c0.1-0.2,0.2-0.4,0.5-0.8c0,0,0.3,0.2,0.6,0.4c0-0.7,0.1-1.2,0.1-1.8c-0.6,0.3-1.2,0.6-1.8,0.9
		C21.9,95,21.8,95.1,21.7,95.3z"/>
	<path class="st87" d="M16.1,97c-0.1-0.2-0.1-0.3-0.1-0.3c-0.8,0-1.5,0.1-2.2,0.1c-0.1,0.8-0.8,0.6-1.4,0.7c0.6,0.2,1.2,0.2,1.7,0.5
		c0.8,0.5,1.5,0.6,2.3,0.2c-0.1-0.2-0.1-0.4-0.2-0.6C16.2,97.5,16.1,97.2,16.1,97z"/>
	<path class="st75" d="M27.4,96.1c-0.4-0.8-0.7-0.8-1.6-0.1c-0.1,1-0.1,2.1-0.2,3.1c0.5-0.4,1-0.8,1.5-1.2c0.1-0.1,0.1-0.1,0.2-0.2
		c0.1-0.1,0.2-0.3,0.4-0.4c-0.3-0.4-0.7-0.7-1-1.1C26.8,96.2,27.1,96.2,27.4,96.1z"/>
	<path class="st78" d="M22.7,96.3c-0.6,0.2-1.3,0.3-1.9,0.5c0.7,0,1.4-0.1,2.1,0.1c1,0.2,1.7,0.1,2.2-1.2c-0.1,0-0.1,0-0.2,0
		C24.3,96.3,23.6,96.5,22.7,96.3z"/>
	<path class="st88" d="M16.2,97.7c0.1,0.2,0.1,0.4,0.2,0.6c0.2,0,0.4,0,0.6,0c0.4-0.1,0.7-0.2,1.1-0.3c0.1,0.1,0.1,0.2,0.2,0.3
		c0.1-0.3,0.2-0.6,0.3-0.9c-0.4-0.1-0.8-0.2-1.3-0.3C17,97.2,16.6,97.5,16.2,97.7z"/>
	<path class="st42" d="M17.3,97c0.4,0.1,0.8,0.2,1.3,0.3c0.2-0.2,0.4-0.4,0.5-0.6c0-0.2,0.1-0.5,0.1-0.5c-0.9,0.1-1.7,0.1-2.6,0.2
		C16.9,96.6,17.1,96.8,17.3,97z"/>
	<path class="st42" d="M16.6,96.4C16.6,96.4,16.6,96.4,16.6,96.4C16.6,96.4,16.6,96.4,16.6,96.4L16.6,96.4z"/>
	<path class="st22" d="M52.7,63.9c0.3-0.4,0.5-0.6,0.6-0.9c-0.4,0.1-0.8,0.1-1.3,0.2c-0.6,0.9-1.4,1.2-2.5,1.2
		c-0.5,0-1.1,0.2-1.6,0.3c0.1,0,0.3,0.1,0.4,0.1c0,0.1,0,0.1,0,0.2c-0.7,0.1-1.5,0.3-2.2,0.4c0.3,0.1,0.6,0.2,0.9,0.4
		c-1.4,1-1.5,1.2-0.9,2.2c-0.9,0-1.7-0.1-2.6-0.1c-0.2,0-0.4,0-0.5,0.1c-0.7,0.3-1.2,0.3-1.6-0.6c-0.2,0.2-0.4,0.3-0.6,0.4
		c0.1,0.4,0.3,0.8,0.3,1.2c0.1,0.9,0.4,1.1,1.2,0.8c0.6-0.2,1.2-0.5,1.9-0.6c0.4,0,0.8,0.3,1.1,0.4c0.7-0.3,1.4-0.6,2-0.9
		c0.3-0.1,0.6-0.3,0.9-0.4c0.8-0.4,1.3-0.2,1.7,0.6c0.1,0,0.1-0.1,0.2-0.1c0-0.5-0.3-1,0.3-1.3c0.7-0.6,1.5-1.3,2.2-1.9
		c0.6-0.6,1.1-1.3,1.7-1.9c-0.1-0.1-0.1-0.1-0.2-0.2C53.8,63.5,53.4,63.6,52.7,63.9z"/>
	<path class="st89" d="M45.3,70.3c0.2,0.1,0.4,0.2,0.8,0.3c-0.4-0.7-0.1-0.9,0.3-1.1c0.4-0.2,0.7-0.6,1-0.8c-0.7,0.3-1.4,0.6-2,0.9
		C45.4,69.8,45.3,70.1,45.3,70.3z"/>
	<path class="st90" d="M49.3,68.5c-0.4,0.4-0.8,0.8-1.3,1.3C48.9,70.3,49.2,70,49.3,68.5z"/>
	<polygon class="st24" points="49.5,73.1 49.5,73.1 49.5,73.1 	"/>
	<path class="st37" d="M17.7,73.6C17.7,73.6,17.7,73.5,17.7,73.6c0-0.1,0.1-0.1,0.2-0.2c-1.9-0.1-3.8,0.2-5.7,0.4c0,0.2,0,0.3,0,0.5
		c2.7,0.4,5.4,0.2,8,0.4c0.2-0.2,0.5-0.5,0.7-0.7c-0.7-0.1-1.3-0.3-2-0.3C18.6,73.6,18.1,73.6,17.7,73.6z"/>
	<path class="st11" d="M24,72.4c-0.4,0.2-0.8,0.4-0.8-0.4c-0.7,0.3-1.1-0.1-1.5-0.5c-0.1-0.1,0.1-0.6,0.2-0.8c0-0.1,0-0.1,0-0.2
		c-0.1-0.5-0.2-1-0.4-1.5c-0.3,0.5-0.5,1-0.8,1.5c1.3,0.2-0.1,1.2,0.5,1.6c-0.7,0-1.3-0.2-1.9-0.2c-0.4,0-0.8,0.1-1.2,0.2
		c0.6,0.3,1.2,0.5,1.9,0.8c1.5,0,2.9,0,4.4,0C24.8,72.3,24.6,72.2,24,72.4z"/>
	<path class="st0" d="M23.7,74c-0.1,0-0.2,0-0.3,0c0,0.1-0.1,0.2-0.1,0.2c-0.8-0.1-1.5-0.2-2.3-0.2c0,0,0,0,0,0
		c-0.2,0.2-0.5,0.5-0.7,0.7c0.1,0.1,0.1,0.1,0.2,0.2c0.6,0,1.2,0,1.9,0c-0.5,0.4-0.9,0.6-1.4,0.9c0.5,0.3,1,0.5,1.6,0.8
		c0.3-0.4,0.7-1,1-1.6C23.8,74.8,23.7,74.4,23.7,74z"/>
	<path class="st28" d="M15.4,71.7c-1.5-0.1-3-0.2-4.6-0.3c-0.5,0-0.9,0.1-1.4,0.1c0,0.1,0,0.2,0,0.2c0.5,0.1,1,0.3,1.5,0.4
		c0.7,0.1,1.3,0.1,2,0.2c0.9-0.1,1.8-0.2,2.7-0.4C15.6,71.9,15.5,71.7,15.4,71.7z"/>
	<path class="st5" d="M25.6,72.9c-0.3,0-0.7,0-1.1,0c-1.5,0-2.9,0-4.4,0c0,0.2,0,0.3,0,0.5c0.3,0,0.6,0.1,0.9,0.1
		c0.6,0,1.3,0.1,1.9,0.1c0.6,0.1,1.2,0.1,1.8,0.2c0.4-0.2,0.7-0.4,1.1-0.6C25.7,73.1,25.6,73,25.6,72.9z"/>
	<path class="st5" d="M9.8,72.2c0.1,0.3,0.3,0.6,0.4,0.8c0.1,0.2,0.3,0.7,0.5,0.7c0.3,0,0.5-0.3,0.8-0.5c0.1-0.1,0.1-0.2,0.2-0.4
		c0.3,0.2,0.4,0.4,0.7,0.6c0.2-0.4,0.4-0.7,0.5-1.1c-0.7-0.1-1.3-0.1-2-0.2C10.6,72.2,10.2,72.2,9.8,72.2z"/>
	<path class="st5" d="M8.2,72.4c-0.2,0.2-0.3,0.4-0.5,0.6c0.2,0.2,0.5,0.4,0.7,0.4c0.2,0,0.4-0.3,0.5-0.6c0.2-0.2,0.3-0.4,0.5-0.7
		c-0.3-0.1-0.6-0.1-0.9-0.2C8.4,72.1,8.3,72.2,8.2,72.4z"/>
	<path class="st42" d="M20.1,73.4c-0.7,0-1.5,0-2.2,0c-0.1,0-0.2,0.1-0.2,0.1c0,0,0,0.1,0,0.1c0.4,0,0.9,0,1.3,0
		c0.7,0.1,1.3,0.2,2,0.3c0,0,0,0,0,0c0-0.2,0-0.3,0-0.5C20.7,73.5,20.4,73.4,20.1,73.4z"/>
	<path class="st61" d="M14.8,69c-0.2,0.1-0.4,0.3-0.6,0.2c-0.6-0.1-0.8,0.2-0.8,0.7c2.1-0.4,4.3-0.7,6.4-1.1c0.6,0,1.1,0,1.7,0
		c0.1-0.2,0.3-0.5,0.4-0.7c-1.1,0.1-2.2,0.2-3.3,0.3C17.2,68.7,16,68.9,14.8,69z"/>
	<path class="st68" d="M11.5,69c-0.3,0-0.6,0-0.9,0c-0.4,0.2-0.9,0.4-1.3,0.6c1.3,0.1,2.7,0.2,4,0.4c0.1-0.5,0.3-0.8,0.8-0.7
		c0.2,0,0.4-0.1,0.6-0.2c-0.9,0.1-1.8,0.1-2.7,0.2C11.9,69.2,11.7,69.1,11.5,69z"/>
	<path class="st91" d="M19.7,68.9c0.4,0.6,0.7,1.1,1.1,1.7c0.3-0.5,0.5-1,0.8-1.5c-0.1-0.1-0.1-0.1-0.2-0.2
		C20.8,68.9,20.3,68.9,19.7,68.9z"/>
	<path class="st5" d="M35.3,21.2c-0.2,0.6-0.2,0.9,0.5,1c0-0.3,0-0.6,0.1-0.9c-0.1-0.4-0.1-0.8-0.2-1.1
		C35.6,20.5,35.5,20.9,35.3,21.2z"/>
	<path class="st86" d="M22.1,94c-0.6,0.2-0.3,0.4-0.2,0.7c0.6-0.3,1.2-0.6,1.8-0.9c0-0.1,0-0.1,0-0.2c-0.2-0.3-0.3-0.6-0.5-0.9
		C22.9,93.2,22.6,93.8,22.1,94z"/>
	<path class="st25" d="M23.5,92.1c-0.1,0-0.2,0.2-0.3,0.3c0,0.1,0,0.2,0,0.4c0.2,0.3,0.3,0.6,0.5,0.9c0.1-0.2,0.1-0.4,0.2-0.7
		c0.1-0.1,0.2-0.3,0.2-0.4c0-0.2,0-0.5,0-0.7C23.9,92,23.7,92,23.5,92.1z"/>
	<path class="st75" d="M20.8,92.7c-0.1,0.2-0.3,0.5-0.4,0.7c0.4-0.1,0.8-0.2,1.1-0.3c0.1-0.1,0.2-0.2,0.4-0.3
		c-0.2-0.2-0.4-0.4-0.6-0.6C21.2,92.4,21,92.6,20.8,92.7z"/>
	<path class="st26" d="M15.8,60.5c-0.2-0.5-0.3-0.8-0.4-1.1c-0.5-0.1-0.9-0.1-1.1-0.2c-0.3,0.4-0.5,0.7-0.7,1
		c-0.2,0.4-0.3,0.7-0.6,1.2c1,0.1,1.9,0.3,2.8,0.4c0.1-1.2,0.1-1.2,1.5-0.5c-0.1-0.6-0.2-1-0.2-1.5C16.5,59.5,15.9,59.2,15.8,60.5z"
		/>
	<path class="st61" d="M52.2,66.6c-0.1,0.2-0.1,0.4-0.2,0.6c0.6-0.3,1.2-0.6,1.8-0.9c0.1-0.3,0.3-0.6,0.4-0.9c0-0.1,0-0.1,0-0.2
		C53.6,65.7,52.9,66.1,52.2,66.6z"/>
	<path class="st92" d="M50.6,67.4c-0.7,0.3-0.4,0.9-0.3,1.3c0.6-0.5,1.2-1,1.8-1.5c0.1-0.2,0.1-0.4,0.2-0.6
		c-0.3,0.2-0.5,0.4-0.8,0.6C51.2,67.3,50.9,67.3,50.6,67.4z"/>
	<path class="st27" d="M28,31.8c-0.1-0.3-0.2-0.7-0.3-1c0,0.2-0.1,0.4-0.1,0.6c0,1,0,2.1,0,3.1c0.9,0.6,0.5,1.5,0.5,2.2
		c-0.2-0.1-0.4-0.1-0.6-0.2c0,0.8,0.1,1.7,0.1,2.5c0.2,0,0.5,0.1,0.6,0c0.1-0.2,0.2-0.5,0.2-0.8c0.1-1.8,0.5-3.7-0.1-5.5
		C28.2,32.5,28.1,32.1,28,31.8z"/>
	<path class="st18" d="M33.5,68.1c-0.7,0-1.3,0.2-1.8,0.8c-0.3,0.4-0.5,0.7-0.8,1.1c-0.1,0.3-0.1,0.7-0.2,1.1
		c0.7-0.3,0.9-1.3,1.8-0.9c0.6,0.2,1.4,0,1.6,0.8c-0.7,0.3-1.3,0.5-2.2,0.8c0.5,0.2,0.8,0.3,1,0.3c0.4,0,0.8,0,1.1,0
		c0.2,0,0.7-0.2,0.7-0.3c0-1,0.6-1.4,1.4-1.7c0.2-0.1,0.2-0.3,0.5-0.6c-1-0.2-1.8-0.4-2.6-0.6C33.5,68.9,33.2,68.7,33.5,68.1z"/>
	<path class="st77" d="M30.7,67.8c-0.1,0-0.1,0-0.2-0.1c-0.1-0.2-0.4-0.3-0.4-0.5C30,67,30,66.6,30,66.3c-0.2,0.1-0.4,0.3-0.5,0.3
		c-0.2,0-0.7-0.2-0.7-0.3c0-0.5,0.1-1.1,0.1-1.6c-0.2,0.3-0.3,0.6-0.6,0.8c-0.4,0.4-0.9,0.8-1.3,1.1c-0.1,0.1-0.2,0.2-0.3,0.2
		c0.1,0.2,0.2,0.4,0.3,0.6c0.3-0.2,0.7-0.6,1-0.5c0.5,0.1,0.9,0.4,1.3,0.7c0,0-0.1,0.3-0.2,0.5c-0.1,0.3-0.2,0.5-0.4,0.8
		c0.2,0.5,0.4,1,0.5,1.4c0.3-0.1,0.6-0.3,1-0.4c0.2-0.1,0.5,0,0.7,0c0.3-0.4,0.5-0.7,0.8-1.1c-0.7,0-1.4,0.1-2,0.1
		C30,68.7,30.4,68.3,30.7,67.8z"/>
	<path class="st93" d="M28,70.4c-0.2-0.1-0.6-0.1-0.9-0.2c-0.6,0.1-1.1,0.2-1.7,0.3c0.3,0.3,0.6,0.6,0.9,0.9
		c0.9,0.5,1.6,0.3,2.2-0.5c0.1-0.1,0.4-0.2,0.6-0.2c0.1-0.1,0.1-0.2,0.2-0.4c-0.2-0.5-0.4-1-0.5-1.4C28.5,69.4,28.3,69.8,28,70.4z"
		/>
	<path class="st48" d="M29.7,72.6c-0.1-0.1-0.1-0.3-0.2-0.3c-0.5-0.1-1-0.1-1.4-0.1c-0.2,0.1-0.4,0.2-0.6,0.2
		c0.2,0.6,0.3,1.2,0.5,1.8c0,0.1,0.1,0.2,0.1,0.4c0.2,0.1,0.3,0.3,0.5,0.4c0.6-0.9,0.5-1.7-0.8-2.1c0.1-0.1,0.1-0.1,0.2-0.2
		C28.5,72.6,29.1,72.6,29.7,72.6z"/>
	<path class="st15" d="M26.3,71.4c-0.1,0.1-0.1,0.1-0.2,0.2c-0.3,0.2-0.6,0.4-1,0.6c0,0.1,0,0.1,0.1,0.2c0.4,0,0.7-0.1,1.1-0.1
		c0.4,0.1,0.7,0.1,1.1,0.2c0.2-0.1,0.4-0.2,0.6-0.2c0.4-0.5,0.7-1,1.1-1.4c-0.2,0.1-0.5,0.1-0.6,0.2C27.9,71.8,27.2,71.9,26.3,71.4z
		"/>
	<path class="st21" d="M29.2,80c-0.9,0.3-1.4,0-1.9-0.7c-0.1,0.3-0.3,0.6-0.2,0.9c0.1,0.4,0.4,0.8,0.6,1.2c0.4-0.1,0.8-0.1,1.1-0.1
		c0,0,0.1,0.2,0.2,0.3c0,0,0.1,0,0.1,0c0.6,0,1.3,0.1,2,0.1C30.7,80.6,29.9,79.8,29.2,80z"/>
	<polygon class="st94" points="29.3,76.8 29.3,76.8 29.3,76.8 	"/>
	<path class="st94" d="M28.5,78c-0.3,0.1-0.6,0.1-0.9,0.2c0-0.1-0.1-0.2-0.1-0.3c0.5-0.2,0.9-0.4,1.4-0.6c0.1-0.1,0.2-0.3,0.3-0.5
		c-0.6,0.1-1.3,0.1-1.9,0.2c-0.1,0.1-0.1,0.3-0.2,0.3c-1.3,0.1-2.1,1.1-3.1,1.7c0.3,0.6,0.9,0.6,1.4,0.1c0.2-0.2,0.3-0.4,0.5-0.6
		c0.4-0.5,0.8-0.5,1.1,0.1c0.7-0.2,1.5-0.5,2.2-0.7l0,0C29,77.9,28.8,77.9,28.5,78z"/>
	<path class="st51" d="M27.1,78.6C26.8,78,26.4,78,26,78.5c-0.2,0.2-0.3,0.4-0.5,0.6c-0.5,0.5-1.1,0.4-1.4-0.1
		c-0.2,0.1-0.5,0.1-0.7,0.2c0.4,0.7,0.9,1.5,1.3,2.2c0.3-1.2,0.4-1.2,1.3-0.6c0.7-0.4,0.7-0.7-0.3-1.5c0.6-0.2,1-0.3,1.4-0.5
		C27.1,78.7,27.1,78.7,27.1,78.6z"/>
	<path class="st54" d="M27.1,80.1c-0.1-0.3,0.1-0.6,0.2-0.9c-0.1-0.2-0.1-0.3-0.2-0.5c-0.4,0.1-0.9,0.3-1.4,0.5
		c1,0.8,1.1,1.1,0.3,1.5c0.3,0.1,0.5,0.3,0.8,0.4c0.1,0.3,0.1,0.6,0.2,0.9c0.2-0.2,1.3,0.4,0.7-0.7C27.4,81,27.2,80.6,27.1,80.1z"/>
	<path class="st61" d="M28.8,81.2c-0.4,0-0.8,0.1-1.1,0.1c0.6,1.1-0.5,0.5-0.7,0.7c0.1,0.2,0.1,0.5,0.2,0.7c0.5-0.2,1.1-0.3,1.7-0.5
		c0-0.2,0.1-0.5,0.2-0.8C28.9,81.4,28.8,81.2,28.8,81.2z"/>
	<path class="st46" d="M26.7,76.2c-0.2-0.2-0.4-0.3-0.5-0.5c-0.2-0.8-0.3-1.6-0.4-2.4c-0.4,0.2-0.7,0.4-1.1,0.6
		c-0.3,0.1-0.6,0.1-0.9,0.2c0,0.4,0.1,0.8-0.1,1.1c-0.3,0.6-0.7,1.1-1,1.6c-0.6-0.3-1.1-0.6-1.6-0.8c-0.2-0.1-0.4-0.1-0.5-0.2
		c0.1,1,0.3,1.9,0.4,2.9c-0.9-0.1-0.9-0.5-0.5-1.1c-1.6,0.2-1.6,0.2-1.9,0.7c0.2,0.2,0.5,0.5,0.6,0.6c0.4,0,0.9,0,1.2,0.1
		c0.4,0.2,0.6,0.6,0.8,1c0-0.1,0-0.2,0-0.3c0.4-0.1,0.8-0.1,1.3-0.2c0.3-0.1,0.5-0.1,0.8-0.2C23.1,79,23,78.7,23,78.5
		c0.6-0.1,1-0.4,1.2-1c0-0.1,0.2-0.1,0.3-0.1c-0.4-0.3-0.7-0.6-1.1-0.8c0-0.1,0-0.3,0.1-0.4c0.5-0.2,1.1-0.4,1.5-0.6
		c0.4,0.5,0.6,0.8,0.8,1.1c0.4,0.1,0.7,0.1,1.1,0.2c0-0.1,0-0.1,0-0.2C26.8,76.6,26.8,76.4,26.7,76.2z"/>
	<path class="st5" d="M25.8,76.8c-0.5,0.1-0.4,1.2-1.3,0.7c-0.1,0-0.3,0-0.3,0.1c-0.2,0.6-0.6,0.9-1.2,1c0.1,0.2,0.2,0.4,0.3,0.6
		c0.1,0,0.1,0,0.2,0c0.2-0.1,0.5-0.1,0.7-0.2c1-0.6,1.8-1.6,3.1-1.7c0.1,0,0.1-0.2,0.2-0.3c-0.2,0-0.3,0-0.5,0
		C26.5,76.9,26.2,76.8,25.8,76.8z"/>
	<path class="st91" d="M28,74.6c-1.2-0.1-1.1,0.9-1.3,1.6c0.1,0.2,0.1,0.4,0.2,0.6c0.3-0.1,0.5-0.3,0.8-0.3c1-0.2,1.2-0.5,0.8-1.5
		C28.3,74.8,28.2,74.7,28,74.6z"/>
	<path class="st39" d="M14.8,96.3c-0.1-0.1-0.1-0.4-0.2-0.6c-0.4,0.2-0.9,0.5-1.3,0.7c0,0.1-0.1,0.3-0.1,0.4c0.2,0,0.4,0,0.6,0
		c0.7,0,1.4-0.1,2.2-0.1c0,0,0,0.1,0.1,0.3c0.2-0.2,0.4-0.4,0.5-0.6c-0.2-0.1-0.4-0.2-0.5-0.4C15.7,96.1,15.3,96.2,14.8,96.3z"/>
	<polygon class="st39" points="16.6,96.4 16.6,96.4 16.6,96.4 	"/>
	<path class="st95" d="M15.3,95.3c-0.2,0.1-0.5,0.2-0.7,0.4c0.1,0.2,0.2,0.5,0.2,0.6c0.5-0.1,0.9-0.1,1.2-0.2
		C16.1,95.5,15.8,95.3,15.3,95.3z"/>
	<path class="st17" d="M29,77.2c-0.4,0.2-0.9,0.4-1.4,0.6c0,0.1,0.1,0.2,0.1,0.3c0.3-0.1,0.6-0.1,0.9-0.2c0.2-0.1,0.5-0.1,0.7-0.1
		c0.2-0.2,0.3-0.4,0.6-0.6c-0.2-0.2-0.4-0.3-0.6-0.5C29.2,76.9,29.1,77.1,29,77.2z"/>
	<path class="st96" d="M28.4,85.2c-0.8,0-0.7,0.6-0.6,1.1c0,0.3,0.3,0.5,0.4,0.8c0.1,0,0.2,0,0.3,0c0.2-0.1,0.3-0.3,0.5-0.4
		C28.2,86.4,28.4,85.7,28.4,85.2z"/>
	<path class="st70" d="M27.1,93.3c0.1,0.2,0.1,0.4,0.2,0.6c0.1,0.2,0.3,0.5,0.3,0.7c-0.1,0.6,0.2,0.7,0.6,0.6
		c0.4-1.1,1.8-0.8,2.6-1.7c-0.3-0.1-0.5-0.2-0.7-0.2C29,93.3,28.1,93.3,27.1,93.3z"/>
	<path class="st30" d="M44.3,63c0,0.1-0.3,0.1-0.3,0c-0.6-0.7-1.7-0.3-2.2-1.1c0,0-0.1,0-0.1,0c-0.6,0.8-1.1,0.4-1.5-0.2
		c-0.3,0-0.7,0-1,0C39.1,62,39,62.3,39,62.6c0.8,0.3,0.7,1.2,1,1.8c0.8-0.1,1.6-0.2,2.4-0.3c1-0.1,2.1-0.3,3.1-0.4
		c0.5-0.1,1-0.3,1.5-0.4c0.2-0.2,0.4-0.3,0.6-0.5c-0.4-0.2-0.9-0.5-1.3-0.7C45.6,62.4,44.7,62.3,44.3,63z"/>
	<path class="st88" d="M43,56.3c-0.7,0-0.3-0.6-0.4-0.9c-0.4,0-0.9,0-1.4,0C41.1,55,41,54.5,40.9,54c-0.1-0.2-0.2-0.4-0.3-0.6
		c0,0-0.1,0-0.1,0.1c0.3,2,0.6,3.9,0.8,5.9c0.2-0.7,0.3-1.3,0.5-2c0,0,0.1,0,0.1,0c0,0.6,0.1,1.2,0.1,1.8c0.1-0.4,0.3-0.8,0.5-1.2
		c0.4,0.5,0.7,0.9,1,1.4c0.7-0.6,0.8-1.1,0.1-1.8C43.2,57.2,43.2,56.7,43,56.3z"/>
	<path class="st97" d="M38.7,57.4c0.6,1.4,0,2.9,1.3,3.9c0.1,0.1,0.1,0.3,0.1,0.4c0.5,0.5,0.9,1,1.5,0.2c-0.1-0.7-0.3-1.4-0.4-2
		C40.5,59.1,39.7,58.4,38.7,57.4z"/>
	<path class="st55" d="M40.5,51.4c0,0.5,0.3,1,0.5,1.5c0.1,0,0.2,0,0.4,0c-0.2-1.6-0.5-3.2-0.7-4.8C40.5,49.2,40.4,50.3,40.5,51.4z"
		/>
	<path class="st98" d="M41.7,57.3c-0.2,0.7-0.3,1.3-0.5,2c0,0.2,0,0.3,0,0.5c0.1,0.7,0.3,1.4,0.4,2c0,0,0.1,0,0.1,0
		c0.1-0.4,0.1-0.7,0.2-1.1c0-0.5,0-1.1,0-1.6c0-0.6-0.1-1.2-0.1-1.8C41.8,57.3,41.8,57.3,41.7,57.3z"/>
	<path class="st67" d="M37.9,47.9c-0.1-0.1-0.2-0.2-0.4-0.5c0.1,1,0.2,1.8,0.2,2.6c0.1,0,0.1,0,0.2,0c0-0.4,0-0.8,0-1.1
		C37.9,48.5,37.9,48.2,37.9,47.9z"/>
	<path class="st24" d="M58.7,56.7c-0.3,0.1-0.5,0.1-0.8,0.2c0.1,0.2,0.2,0.4,0.3,0.5c0.4,0.6,0.9,1.3,1.3,1.9
		c0.2-0.3,0.4-0.5,0.6-0.8c-0.1-0.3-0.2-0.7-0.4-0.9C59.4,57.3,59,57,58.7,56.7z"/>
	<path class="st65" d="M57.5,63.2c0.8-0.6,1.5-1.3,2.3-1.9c-1.2,0.8-2.4,1.7-3.6,2.5C56.9,64.2,57.1,63.5,57.5,63.2z"/>
	<path class="st99" d="M51.7,62.4c-0.1,0.1-0.3,0.2-0.4,0.4c0.3,0.1,0.5,0.3,0.8,0.4c0.4-0.1,0.8-0.1,1.3-0.2
		c-0.2,0.2-0.3,0.4-0.6,0.9c0.7-0.2,1.1-0.3,1.5-0.5C53.6,62.2,53.4,62.1,51.7,62.4z"/>
	<path class="st88" d="M51,61.3c-0.4,0.4-0.7,0.9-1.1,1.3c0.2,0.1,0.5,0.2,0.7,0.3c0.2-0.1,0.5-0.1,0.7-0.2c0.1-0.1,0.3-0.2,0.4-0.4
		c0.1-0.2,0.1-0.3,0.2-0.5c-0.2-0.2-0.5-0.4-0.7-0.5C51.1,61.3,51,61.3,51,61.3z"/>
	<path class="st100" d="M47.5,62.8c-0.2,0.2-0.4,0.3-0.6,0.5c0.9,0.1,1.7,0.1,2.4-0.5c-0.2,0-0.4-0.1-0.5-0.1
		C48.3,62.7,47.9,62.7,47.5,62.8z"/>
	<path class="st18" d="M49.9,62.7c-0.2,0-0.4,0.1-0.6,0.1c-0.7,0.6-1.5,0.7-2.4,0.5c-0.5,0.1-1,0.3-1.5,0.4c0,0,0,0.1,0,0.1
		c0.9-0.4,1.5,0.5,2.2,0.6c0-0.2-0.1-0.4-0.1-0.4c1-0.4,2-0.7,3-1C50.4,62.9,50.1,62.8,49.9,62.7z"/>
	<path class="st32" d="M34.4,64.4c-0.5-0.1-1-0.1-1.5-0.2c-0.9-0.2-1.7-0.3-2.6-0.5c-0.2,0-0.5,0.1-0.7,0.1
		c-0.2,0.3-0.5,0.5-0.7,0.8c0,0.5-0.1,1.1-0.1,1.6c0,0.1,0.4,0.3,0.7,0.3c0.2,0,0.4-0.2,0.5-0.3c0.2-0.1,0.5-0.1,0.7-0.2
		c0.6,0,1.1,0,1.7,0c1.2-0.2,2.5-0.3,3.7-0.6c0.6-0.1,1.2-0.3,1.7-0.4c-0.5-0.2-1.1-0.3-1.6-0.5C35.7,64.6,35.1,64.5,34.4,64.4z"/>
	<path class="st71" d="M27.6,42.8c-0.1-0.1-0.1-0.1-0.2-0.2c-0.2,0-0.4,0-0.7-0.1c-0.1,0.5-0.4,1.1-0.3,1.5c0.3,1.2-0.2,2.4,0.6,3.5
		c0.1,0.1,0,0.2,0,0.4c0.1,0.4,0.2,0.8,0.3,1.2c0.1,0,0.1,0,0.2,0c-0.1-0.7-0.1-1.4-0.2-2c-0.1-0.4-0.2-0.8-0.3-1.3
		c0-0.7-0.1-1.4-0.1-2.1C27,43.3,27.4,43.1,27.6,42.8z"/>
	<path class="st95" d="M27,43.6c-0.1,0.7,0,1.4,0.1,2.1c0.3-0.3,0.6-0.6,0.9-0.9c-0.1-0.7-0.2-1.3-0.4-2C27.4,43.1,27,43.3,27,43.6z
		"/>
	<path class="st54" d="M38.3,65.4c0-0.1-0.1-0.2-0.1-0.2c0.6-0.2,1.1-0.5,1.7-0.7c-0.3-0.6-0.1-1.5-1-1.8c-0.1,0-0.1,0.1-0.2,0.1
		c0.2,0.8,0.1,1.4-0.8,1.7c-0.3-0.4-0.5-0.8-0.7-1.1c-0.1-0.3-0.1-0.7-0.2-1.1c-0.7,0.2-0.8,0.8-0.5,1.3c0.4,0.6,0.1,0.9-0.3,1.1
		c0.5,0.2,1.1,0.3,1.6,0.5c-0.2,0.2-0.4,0.5-0.7,0.8c0.3,0.2,0.7,0.4,1,0.6c0.9-0.3,1.8-0.5,2.8-0.8c-0.1-0.1-0.1-0.2-0.2-0.3
		C40,65.4,39.2,65.4,38.3,65.4z"/>
	<path class="st17" d="M37.5,54.4c0.1,0.6,0.1,1.1,0.2,1.7c0.1,0.1,0.2,0.2,0.3,0.3c0.1-0.1,0.3-0.2,0.2-0.3
		c-0.1-0.6-0.3-1.3-0.4-1.9C37.7,54.2,37.6,54.3,37.5,54.4z"/>
	<path class="st101" d="M27.8,55.3c-0.4-0.1-0.6-0.1-0.9-0.2c0.4,0.9-0.7,1.4-0.7,2.2c0,0.5,0.1,1,0.1,1.5c0.2,0.3,0.4,0.6,0.7,1
		c-0.1,0.2-0.2,0.4-0.4,0.7c0.3,0.2,0.6,0.4,0.9,0.6c0.1,0,0.1,0,0.2,0c0.2-0.8,0.4-1.6,1.1-2.2c0-0.2,0-0.4,0-0.6
		C27.5,57.4,27.9,56.2,27.8,55.3z"/>
	<path class="st99" d="M26.9,54c-0.2,0.3-0.3,0.5-0.5,0.8c-0.5,0.8-0.8,1.6-0.3,2.5c0-0.8,1.1-1.3,0.7-2.2c0.2-0.4,0.3-0.8,0.5-1.3
		C27.2,53.9,27.1,53.9,26.9,54z"/>
	<path class="st69" d="M28.1,53.5c-0.4-0.3-0.8-0.6-1.2-1c0,0.5,0,1,0,1.5c0.2-0.1,0.3-0.1,0.5-0.2c0.6,0.6,1.1,0.3,1.5-0.2
		C28.5,52.9,28.3,53.3,28.1,53.5z"/>
	<path class="st68" d="M27.6,61c0,0.1,0,0.3,0,0.4c0.1,0.1,0.2,0.2,0.2,0.3c0.1-0.3,0.1-0.6,0.2-1c0.3,0.3,0.6,0.6,0.9,0.8
		c-0.1-0.9-0.2-1.8-0.2-2.7C28.1,59.4,27.9,60.2,27.6,61z"/>
	<path class="st43" d="M28.9,63.2c0,0.1-0.1,0.3-0.1,0.4c-0.2,0.1-0.4,0.2-0.5,0.3c-0.1,1.1-1,0.9-1.6,1.1c0.2,0.5,0.3,1.1,0.5,1.6
		c0.4-0.4,0.9-0.7,1.3-1.1c0.2-0.2,0.4-0.6,0.6-0.8c0.2-0.3,0.5-0.5,0.7-0.8c-0.2-0.2-0.3-0.3-0.5-0.5C29,63.3,28.9,63.3,28.9,63.2z
		"/>
	<path class="st51" d="M27.6,61.3c0,0.7,0.1,1.5,0.1,2.2c0.4,0,0.7,0,1,0c0.1-0.1,0.1-0.3,0.1-0.4c0-0.3,0.1-0.5,0.1-0.6
		c-0.4-0.3-0.8-0.6-1.1-0.9C27.8,61.6,27.7,61.4,27.6,61.3z"/>
	<path class="st66" d="M27,59.7c-0.3-0.4-0.5-0.7-0.7-1c-0.4,0.6-0.9,1.2-1.3,1.8c0.1,0.1,0.3,0.2,0.4,0.3c0.1,0,0.1,0,0.2,0
		c0.2,0,0.5,0,0.5,0.1c0.5,0.9,0.6,0.9,1.3,0.1c-0.3-0.2-0.6-0.4-0.9-0.6C26.8,60.1,26.9,59.9,27,59.7z"/>
	<path class="st102" d="M27.6,34.5c0,0.7-0.1,1.3-0.1,2c0.2,0.1,0.4,0.1,0.6,0.2C28.1,36,28.5,35.2,27.6,34.5z"/>
	<path class="st103" d="M24,93c-0.1,0.2-0.1,0.4-0.2,0.7c0,0.1,0,0.1,0,0.2c0,0.6-0.1,1.1-0.1,1.8c-0.3-0.2-0.5-0.4-0.6-0.4
		c-0.2,0.3-0.4,0.5-0.5,0.8c0,0.1,0,0.2,0.1,0.3c0.9,0.2,1.6,0.1,2.2-0.6c0.1-0.4,0.3-0.9,0.4-1.4c-0.3-0.1-0.6-0.1-0.7-0.1
		C24.4,93.7,24.2,93.4,24,93z"/>
	<path class="st51" d="M26.5,65c0.7-0.2,1.6-0.1,1.6-1.1c-0.5,0.2-1,0.4-1.4,0.6C26.7,64.6,26.6,64.8,26.5,65z"/>
	<path class="st22" d="M21.8,68.2c-0.1,0.2-0.3,0.5-0.4,0.7c0.1,0.1,0.1,0.1,0.2,0.2c0.1,0.5,0.2,1,0.4,1.5c0.6-0.3,1.2-0.6,1.7-0.9
		c0.1-0.4,0.2-0.8,0.3-1.2c0.1-0.3,0.2-0.6,0.4-0.9c-0.1,0-0.2,0-0.4-0.1C23.3,68,22.6,68.4,21.8,68.2z M22.8,69.7
		c-0.1-0.1-0.3-0.1-0.4-0.2c0.1-0.3,0.1-0.6,0.2-0.8c0.1-0.1,0.4,0.1,0.7,0.1C23.1,69.1,22.9,69.4,22.8,69.7z"/>
	<path class="st104" d="M25.2,68.3c0.1-0.4,0.2-0.7,0.4-1.1c-0.1,0-0.1,0-0.2,0c-0.4,0.1-0.7,0.3-1.1,0.4c-0.1,0.3-0.2,0.6-0.4,0.9
		c0.2,0.4,0.3,0.8,0.5,1.1c0.1,0.1,0.3,0.2,0.4,0.4c0.2-0.2,0.4-0.5,0.5-0.7C25.1,69,24.7,68.7,25.2,68.3z"/>
	<path class="st83" d="M27.1,67.5c-0.1-0.2-0.2-0.4-0.3-0.6c-0.4,0.1-0.7,0.2-1.1,0.3c-0.1,0.4-0.2,0.7-0.4,1.1
		c0.7,0.4,1.4,0.8,2.3,1.2c-0.1-0.4-0.2-0.6-0.3-0.8C27.2,68.3,27.1,67.9,27.1,67.5z"/>
	<path class="st105" d="M16.9,81.3c0.8,0,1.7,0,2.5,0c0-0.1,0-0.1,0-0.2c-0.8,0-1.7,0-2.5,0C16.9,81.1,16.9,81.2,16.9,81.3z"/>
	<path class="st98" d="M15,76.8c0.4,0.2,0.8,0.4,1.2,0.5c0.1-0.1,0.1-0.3,0.2-0.4c-0.4-0.2-0.8-0.3-1.3-0.5
		C15.1,76.5,15.1,76.6,15,76.8z"/>
	<path class="st86" d="M16.1,97c0.1,0.2,0.1,0.5,0.2,0.7c0.4-0.2,0.7-0.5,1.1-0.7c-0.2-0.2-0.5-0.4-0.7-0.5
		C16.4,96.6,16.2,96.8,16.1,97z"/>
	<path class="st106" d="M47.1,65.7c-0.3-0.1-0.6-0.2-0.9-0.4c-0.4,0.1-0.8,0.1-1.2,0.2c-1.6,0.3-3.2,0.4-4.7,1.3
		c0.1,0.4,0.1,0.8,0.2,1.2c0.2-0.1,0.3-0.2,0.5-0.3c0.2-0.1,0.4-0.3,0.6-0.4c0.3,0.9,0.9,0.9,1.6,0.6c0.2-0.1,0.3-0.1,0.5-0.1
		c0.9,0,1.7,0.1,2.6,0.1C45.6,66.9,45.6,66.8,47.1,65.7z"/>
	<path class="st28" d="M37.9,65.1c-0.6,0.2-1.2,0.3-1.7,0.4c-1.2,0.2-2.5,0.4-3.7,0.6c-0.3,0.1-0.5,0.2-0.6,0.2
		c-0.1,0.5-0.2,1-0.3,1.4c0.8,0,1.6,0,2.4,0c0.9-0.2,1.7-0.5,2.6-0.7c0.6-0.2,1.2-0.4,1.8-0.5c-0.4-0.2-0.7-0.4-1-0.6
		C37.5,65.6,37.7,65.4,37.9,65.1z"/>
	<path class="st59" d="M45.5,63.8c-0.3,0.1-0.5,0.3-0.8,0.4c-0.4,0.1-0.9,0.3-1.4,0.3c-0.3,0-0.7-0.2-1-0.3c-0.5,0.4-1,0.8-1.4,1.2
		c0.1,0.1,0.1,0.2,0.2,0.3c2.2-0.4,4.4-0.7,6.6-1.1c0,0,0-0.1,0-0.1C46.9,64.3,46.4,63.5,45.5,63.8z"/>
	<path class="st95" d="M50.6,63c-1,0.3-2,0.7-3,1c0,0,0,0.2,0.1,0.4c0,0,0,0.1,0,0.1c0.1,0,0.2,0,0.4,0c0.5-0.1,1.1-0.3,1.6-0.3
		c1.1,0.1,1.9-0.3,2.5-1.2c-0.3-0.1-0.5-0.3-0.8-0.4C51.1,62.8,50.8,62.9,50.6,63z"/>
	<path class="st61" d="M30.7,67.8c-0.4,0.4-0.8,0.9-1,1.2c0.6,0,1.3-0.1,2-0.1c0.5-0.6,1.1-0.8,1.8-0.8c0.1-0.1,0.3-0.2,0.4-0.4
		c-0.8,0-1.6,0-2.4,0C31.2,67.8,31,67.8,30.7,67.8z"/>
	<path class="st95" d="M25.4,69.3c-0.2,0.2-0.4,0.5-0.5,0.7c-0.1,0.8-0.8,0.7-1.3,0.8c-0.5,0.1-1.1-0.1-1.6-0.1
		c-0.1,0.3-0.3,0.7-0.2,0.8c0.4,0.4,0.9,0.8,1.5,0.5c0.4-0.1,0.8-0.1,1.1-0.2c0.4-0.4,0.7-0.9,1.1-1.3c0.6-0.1,1.1-0.2,1.7-0.3
		c-0.4-0.1-0.9-0.2-1.2-0.5C25.7,69.6,25.9,69.1,25.4,69.3z"/>
	<path class="st48" d="M26.3,72.2c-0.4,0-0.7,0.1-1.1,0.1c0-0.1,0-0.1-0.1-0.2c0.3-0.2,0.6-0.4,1-0.6c-0.6,0.1-1.2,0.1-1.8,0.2
		c-0.4,0.1-0.8,0.1-1.1,0.2c0,0.8,0.4,0.6,0.8,0.4c0.6-0.2,0.8-0.1,0.5,0.5c0.4,0,0.7,0,1.1,0c0.1,0,0.1,0.2,0.2,0.3
		c0.1,0.8,0.3,1.6,0.4,2.4c0,0.2,0.3,0.3,0.5,0.5c0.2-0.7,0.1-1.7,1.3-1.6c0-0.1-0.1-0.2-0.1-0.4C26.2,74.2,26.1,74,26.3,72.2z"/>
	<path class="st17" d="M24.5,69.6c-0.2-0.4-0.4-0.7-0.5-1.1c-0.1,0.4-0.2,0.8-0.3,1.2c-0.6,0.3-1.1,0.6-1.7,0.9c0,0.1,0,0.1,0,0.2
		c0.5,0,1.1,0.2,1.6,0.1c0.5-0.1,1.2,0,1.3-0.8C24.7,69.8,24.6,69.8,24.5,69.6z"/>
	<path class="st46" d="M22.9,73.6c-0.6,0-1.3-0.1-1.9-0.1c0,0.2,0,0.3,0,0.5c0.8,0.1,1.5,0.2,2.3,0.2c0,0,0.1-0.1,0.1-0.2
		c-0.5-0.1-0.9-0.2-1.6-0.3C22.3,73.7,22.6,73.7,22.9,73.6z"/>
	<path class="st107" d="M21.8,73.7c0.7,0.1,1.1,0.2,1.6,0.3c0.1,0,0.2,0,0.3,0c0.3-0.1,0.6-0.1,0.9-0.2c-0.6-0.1-1.2-0.1-1.8-0.2
		C22.6,73.7,22.3,73.7,21.8,73.7z"/>
	<path class="st74" d="M28.1,68.7c-0.2,0-0.4,0-0.7-0.1c-0.1,0-0.1,0-0.2,0c0.1,0.2,0.1,0.5,0.3,0.8c-0.9-0.4-1.6-0.8-2.3-1.2
		c-0.5,0.4-0.1,0.7,0.2,0.9c0.4-0.1,0.3,0.3,0.5,0.4c0.3,0.3,0.8,0.3,1.2,0.5c0.3,0.1,0.7,0.2,0.9,0.2c0.3-0.5,0.5-1,0.7-1.5
		c0.1-0.3,0.2-0.5,0.4-0.8c-0.3-0.2-0.6-0.4-0.9-0.5C28.1,68,28.1,68.3,28.1,68.7z"/>
	<path class="st65" d="M27.1,67.5c0.1,0.4,0.1,0.8,0.2,1.2c0.1,0,0.1,0,0.2,0c0.2-0.4,0.5-0.7,0.7-1.1c0.3,0.2,0.6,0.4,0.9,0.5
		c0.1-0.2,0.2-0.5,0.2-0.5C28.9,67.4,28.5,67,28,67C27.7,66.9,27.4,67.3,27.1,67.5z"/>
	<path class="st51" d="M31.2,66.7c-0.2,0.3-0.4,0.7-0.7,1c0.1,0,0.1,0,0.2,0.1c0.3,0,0.5,0,0.8-0.1c0.1-0.4,0.2-0.9,0.3-1.4
		c0.1-0.1,0.4-0.1,0.6-0.2c-0.6,0-1.1,0-1.7,0C30.9,66.3,31.1,66.5,31.2,66.7z"/>
	<path class="st22" d="M30,66.3c0,0.3,0,0.7,0.1,1c0.1,0.2,0.3,0.3,0.4,0.5c0.2-0.4,0.5-0.7,0.7-1c-0.2-0.2-0.3-0.4-0.5-0.6
		C30.5,66.2,30.3,66.2,30,66.3z"/>
	<path class="st74" d="M24.3,71.8c0.6-0.1,1.2-0.1,1.8-0.2c0.1-0.1,0.1-0.1,0.2-0.2c-0.3-0.3-0.6-0.6-0.9-0.9
		C25.1,70.9,24.7,71.4,24.3,71.8z"/>
	<path class="st46" d="M26.3,72.2c-0.3,1.8-0.1,2,1.6,2c-0.2-0.6-0.3-1.2-0.5-1.8C27.1,72.3,26.7,72.2,26.3,72.2z"/>
	<path class="st43" d="M23.5,76.3c0,0.1,0,0.3-0.1,0.4c0.4,0.3,0.7,0.6,1.1,0.8c0.8,0.5,0.8-0.6,1.3-0.7c-0.2-0.3-0.4-0.6-0.8-1.1
		C24.6,75.8,24.1,76,23.5,76.3z"/>
	<path class="st39" d="M38.2,65.1c0,0.1,0.1,0.2,0.1,0.2c0.8,0,1.7,0,2.5,0c0.5-0.4,1-0.8,1.4-1.2c0,0,0,0,0,0
		c-0.8,0.1-1.6,0.2-2.4,0.3C39.4,64.7,38.8,64.9,38.2,65.1z"/>
	<path class="st34" d="M42.3,64.2c0.3,0.1,0.7,0.3,1,0.3c0.5,0,0.9-0.2,1.4-0.3c0.3-0.1,0.5-0.3,0.8-0.4c0,0,0-0.1,0-0.1
		C44.4,63.9,43.4,64,42.3,64.2C42.3,64.2,42.3,64.2,42.3,64.2z"/>
	<path class="st67" d="M22.6,68.7c-0.2,0.2-0.2,0.5-0.2,0.8c0.1,0.1,0.3,0.1,0.4,0.2c0.2-0.3,0.3-0.6,0.5-0.9
		C23,68.7,22.7,68.6,22.6,68.7z"/>
	<path class="st30" d="M28.1,68.7c0-0.4,0.1-0.8,0.1-1.1c-0.2,0.4-0.5,0.7-0.7,1.1C27.6,68.7,27.9,68.7,28.1,68.7z"/>
	<path class="st108" d="M48,64.6c-0.1,0-0.2,0-0.4,0c-2.2,0.4-4.4,0.7-6.6,1.1c-0.9,0.3-1.8,0.5-2.8,0.8c-0.6,0.2-1.2,0.4-1.8,0.5
		c-0.9,0.2-1.7,0.5-2.6,0.7c-0.1,0.1-0.3,0.2-0.4,0.4c-0.3,0.6,0.1,0.7,0.6,0.9c0.8,0.2,1.6,0.4,2.6,0.6c-0.2,0.3-0.3,0.5-0.5,0.6
		c-0.7,0.4-1.4,0.7-1.4,1.7c0,0.1-0.4,0.2-0.7,0.3c-0.4,0-0.8,0-1.1,0c-0.2,0-0.3,0.1-0.5,0.1c0,0.1,0,0.2,0,0.2
		c0.3,0.1,0.6,0.2,0.8,0.2c1.1-0.1,2.1-0.2,3.2-0.4c0.2-0.2,0.5-0.5,0.7-0.5c1.6-0.2,3.3-0.4,4.9-0.6c0.3,0,0.6,0.1,0.8,0.2
		c0.4,0.4,0.6,0.3,0.9-0.1c0.3-0.4,0.6-0.8,1-1.1c0.1-0.1,0.3,0.1,0.5,0.1c0.1-0.3,0.1-0.5,0.2-0.8c-0.4-0.1-0.8-0.4-1.1-0.4
		c-0.6,0.1-1.3,0.3-1.9,0.6c-0.8,0.3-1.2,0.1-1.2-0.8c0-0.4-0.2-0.8-0.3-1.2c-0.1,0.1-0.3,0.2-0.5,0.3c-0.1-0.4-0.1-0.8-0.2-1.2
		c1.4-0.9,3.1-1,4.7-1.3c0.4-0.1,0.8-0.1,1.2-0.2c0.7-0.1,1.5-0.3,2.2-0.4c0-0.1,0-0.1,0-0.2C48.3,64.7,48.1,64.7,48,64.6z"/>
	<g>
		<polygon points="59.4,93.5 49,93.5 56.2,84.6 49.7,84.6 49.7,83.1 59.3,83.1 52.1,92.1 59.4,92.1 		"/>
		<polygon class="st109" points="50.9,86.9 53.2,86.9 54.4,85.4 47.3,85.4 51.3,89.4 52.2,88.2 		"/>
	</g>
</g>
</svg>
